<?xml version="1.0" standalone="no"?><!DOCTYPE svg PUBLIC "-//W3C//DTD SVG 1.1//EN" "http://www.w3.org/Graphics/SVG/1.1/DTD/svg11.dtd"><svg t="1578145104059" class="icon" viewBox="0 0 1024 1024" version="1.1" xmlns="http://www.w3.org/2000/svg" p-id="4976" width="128" height="128" xmlns:xlink="http://www.w3.org/1999/xlink"><defs><style type="text/css"></style></defs><path d="M791.2 64H232.8c-51.7 0-93.5 41.8-93.5 93.5v451.9c0 51.7 41.8 93.5 93.5 93.5h558.5c51.7 0 93.5-41.8 93.5-93.5V157.5c-0.1-51.7-41.9-93.5-93.6-93.5zM291 607.3c-33.7 0-61-27.4-61-61 0-33.7 27.4-61 61-61 33.7 0 61 27.4 61 61s-27.4 61-61 61z m465.1 0c-33.7 0-61-27.4-61-61 0-33.7 27.4-61 61-61 33.7 0 61 27.4 61 61 0.1 33.6-27.3 61-61 61z m68.2-241c0 30.9-25.1 56.1-56.1 56.1H255.9c-30.9 0-56.1-25.2-56.1-56.1V186.1c0-30.9 25.1-56.1 56.1-56.1h512.3c30.9 0 56.1 25.2 56.1 56.1v180.2zM672.1 827.3H351.9L329 864.1h366l-22.9-36.8zM630 759.7H394l-22.9 36.8h281.7L630 759.7z m81.6 0h-2l2 3.3v-3.3z m2.6 135.3H309.8l-22.9 36.8H737L714.2 895z" p-id="4977" fill="#ffffff"></path><path d="M758.4 742.5h-97.1L796.8 960H894L758.4 742.5zM130 960h97.1l135.5-217.5h-97.1L130 960z" p-id="4978" fill="#ffffff"></path></svg>