<svg xmlns="http://www.w3.org/2000/svg" width="192" height="192" viewBox="0 0 192 192">
  <g fill="none" fill-rule="evenodd">
    <rect width="192" height="192"/>
    <path fill="#7C96A3" fill-rule="nonzero" d="M96,192 C46.6666667,140.579381 22,101.246048 22,74 C22,33.1309285 55.1309285,0 96,0 C136.869071,0 170,33.1309285 170,74 C170,101.246048 145.333333,140.579381 96,192 Z M158,74 C158,39.7583455 130.241654,12 96,12 C61.7583455,12 34,39.7583455 34,74 C34,95.6821434 54.5097134,129.753602 96,174.513563 C137.490287,129.753602 158,95.6821434 158,74 Z M96,117 C73.3563253,117 55,98.6436747 55,76 C55,53.3563253 73.3563253,35 96,35 C118.643675,35 137,53.3563253 137,76 C137,98.6436747 118.643675,117 96,117 Z M96,109 C114.225397,109 129,94.2253967 129,76 C129,57.7746033 114.225397,43 96,43 C77.7746033,43 63,57.7746033 63,76 C63,94.2253967 77.7746033,109 96,109 Z"/>
  </g>
</svg>
