<?xml version="1.0" standalone="no"?><!DOCTYPE svg PUBLIC "-//W3C//DTD SVG 1.1//EN" "http://www.w3.org/Graphics/SVG/1.1/DTD/svg11.dtd"><svg t="1578226989593" class="icon" viewBox="0 0 1024 1024" version="1.1" xmlns="http://www.w3.org/2000/svg" p-id="2740" xmlns:xlink="http://www.w3.org/1999/xlink" width="128" height="128"><defs><style type="text/css"></style></defs><path d="M509.773913 710.121739c-171.408696 0-311.652174-140.243478-311.652174-311.652174s140.243478-311.652174 311.652174-311.652174 311.652174 140.243478 311.652174 311.652174-140.243478 311.652174-311.652174 311.652174z m0-578.782609c-146.921739 0-267.130435 120.208696-267.130435 267.130435s120.208696 267.130435 267.130435 267.130435 267.130435-120.208696 267.130435-267.130435-120.208696-267.130435-267.130435-267.130435z" p-id="2741" fill="#ffffff"></path><path d="M400.695652 525.356522v20.034782h-26.713043V240.417391h273.808695v304.973913H623.304348v-20.034782H400.695652z m0-24.486957h222.608696V264.904348H400.695652v235.965217z m95.721739-53.426087v-62.330435h-69.008695v-22.260869h69.008695v-44.521739H422.956522v-22.26087h178.086956v22.26087h-77.913043v44.521739h71.234782v22.260869h-71.234782v62.330435h82.365217v22.26087h-189.217391v-22.26087h80.13913z m64.556522-57.878261c4.452174 4.452174 8.904348 11.130435 15.582609 20.034783 4.452174 6.678261 8.904348 15.582609 13.356521 22.26087l-17.808695 13.356521c-4.452174-8.904348-8.904348-15.582609-13.356522-24.486956s-8.904348-13.356522-13.356522-20.034783l15.582609-11.130435z" p-id="2742" fill="#ffffff"></path><path d="M1021.773913 487.513043v-122.434782h-222.608696v44.521739h178.086957v42.295652l-55.652174 8.904348-73.46087 153.6 48.973913 73.46087-69.008695 80.13913-73.46087-40.069565-169.182608 82.365217-17.808696 82.365218h-102.4l-13.356522-86.817392-158.052174-66.782608-71.234782 42.295652-77.913044-77.913044 40.069565-82.365217-77.913043-158.052174H46.747826v-42.295652h164.730435v-44.521739H2.226087v131.33913h75.686956L133.565217 621.078261l-44.521739 93.495652 126.886957 122.434783 82.365217-48.973913 113.530435 48.973913 15.582609 100.173913h175.860869l20.034783-95.721739 131.33913-62.330435 82.365218 46.747826 115.756521-133.565218-53.426087-82.365217 53.426087-109.078261z" p-id="2743" fill="#ffffff"></path></svg>