<?xml version="1.0" standalone="no"?><!DOCTYPE svg PUBLIC "-//W3C//DTD SVG 1.1//EN" "http://www.w3.org/Graphics/SVG/1.1/DTD/svg11.dtd"><svg t="1578227014811" class="icon" viewBox="0 0 1024 1024" version="1.1" xmlns="http://www.w3.org/2000/svg" p-id="3077" xmlns:xlink="http://www.w3.org/1999/xlink" width="128" height="128"><defs><style type="text/css"></style></defs><path d="M512 1024C229.286957 1024 0 794.713043 0 512S229.286957 0 512 0s512 229.286957 512 512-229.286957 512-512 512z m0-979.478261C253.773913 44.521739 44.521739 253.773913 44.521739 512s209.252174 467.478261 467.478261 467.478261 467.478261-209.252174 467.478261-467.478261S770.226087 44.521739 512 44.521739z" p-id="3078" fill="#ffffff"></path><path d="M643.33913 385.113043c-24.486957 15.582609-51.2 31.165217-80.13913 42.295653-28.93913 13.356522-60.104348 24.486957-95.721739 35.617391h218.156522v280.486956H645.565217V712.347826H396.243478v33.391304H356.173913V494.191304c-13.356522 2.226087-24.486957 6.678261-37.843478 8.904348s-26.713043 6.678261-40.069565 8.904348l-13.356522-37.843478c77.913043-15.582609 146.921739-31.165217 204.8-51.2 57.878261-20.034783 111.304348-42.295652 155.826087-71.234783l17.808695 33.391304z m-195.895652-62.330434c-8.904348 8.904348-20.034783 17.808696-33.391304 26.713043-13.356522 8.904348-24.486957 17.808696-37.843478 26.713044l-40.069566 26.713043c-13.356522 8.904348-26.713043 15.582609-37.843478 22.26087l-17.808695-35.617392c13.356522-6.678261 24.486957-13.356522 37.843478-20.034782 13.356522-6.678261 26.713043-15.582609 37.843478-24.486957 13.356522-8.904348 24.486957-15.582609 35.617391-24.486956 11.130435-8.904348 22.26087-15.582609 31.165218-24.486957l24.486956 26.713044z m198.121739 173.634782H396.243478v40.069566H645.565217v-40.069566z m-249.321739 113.530435H645.565217v-42.295652H396.243478v42.295652zM645.565217 678.956522v-40.069565H396.243478v40.069565H645.565217z m-113.530434-284.939131H489.73913v-133.565217l40.069566 2.226087v131.33913z m71.234782-106.852174c8.904348 4.452174 20.034783 11.130435 33.391305 20.034783 13.356522 6.678261 26.713043 15.582609 40.069565 24.486957l40.069565 26.713043c13.356522 8.904348 24.486957 17.808696 33.391304 24.486957l-15.582608 35.617391c-11.130435-8.904348-22.26087-17.808696-35.617392-26.713044-13.356522-8.904348-26.713043-20.034783-42.295652-28.93913-13.356522-8.904348-26.713043-17.808696-40.069565-24.486957-13.356522-8.904348-24.486957-13.356522-35.617391-20.034782l22.260869-31.165218z" p-id="3079" fill="#ffffff"></path></svg>