<svg xmlns="http://www.w3.org/2000/svg" xmlns:xlink="http://www.w3.org/1999/xlink" width="192" height="192" viewBox="0 0 192 192">
  <defs>
    <path id="icon-nav-02-a" d="M156.553249,67.1790932 L129.501925,82.7971828 C131.114261,86.8851522 132,91.3391384 132,96 C132,101.505418 130.764184,106.722196 128.554825,111.38806 L153.139284,125.581903 C156.734181,122.12513 161.618915,120 167,120 C178.045695,120 187,128.954305 187,140 C187,151.045695 178.045695,160 167,160 C155.954305,160 147,151.045695 147,140 C147,137.228471 147.563748,134.588611 148.582828,132.188837 L124.345611,118.195473 C118.628115,125.486996 110.158113,130.517128 100.5,131.721478 L100.5,160.641504 C107.145793,162.585495 112,168.725867 112,176 C112,184.836556 104.836556,192 96,192 C87.163444,192 80,184.836556 80,176 C80,168.36569 85.3468178,161.980196 92.5,160.383972 L92.5,131.832037 C82.5222413,130.869383 73.7353868,125.833737 67.8222803,118.407942 L43.5210878,132.438242 C44.4745062,134.771046 45,137.324155 45,140 C45,151.045695 36.045695,160 25,160 C13.954305,160 5,151.045695 5,140 C5,128.954305 13.954305,120 25,120 C30.4812044,120 35.4474164,122.204945 39.0600307,125.77623 L63.5611032,111.63053 C61.2790911,106.903214 60,101.600981 60,96 C60,91.2433815 60.9225076,86.7022261 62.5983698,82.5456868 L35.6378745,66.9800376 C32.7206435,70.0709283 28.5856012,72 24,72 C15.163444,72 8,64.836556 8,56 C8,47.163444 15.163444,40 24,40 C32.836556,40 40,47.163444 40,56 C40,57.3717546 39.827373,58.7031899 39.5026581,59.9737671 L66.4006729,75.5033432 C72.2747219,67.0365815 81.6882006,61.211085 92.5,60.1679626 L92.5,39.6947831 C83.1230877,38.039717 76,29.8517016 76,20 C76,8.954305 84.954305,0 96,0 C107.045695,0 116,8.954305 116,20 C116,29.4983657 109.378695,37.4502428 100.5,39.4917179 L100.5,60.2785219 C110.984445,61.5859137 120.068775,67.4017485 125.751722,75.724759 L152.568429,60.2421258 C152.197879,58.8911053 152,57.4686612 152,56 C152,47.163444 159.163444,40 168,40 C176.836556,40 184,47.163444 184,56 C184,64.836556 176.836556,72 168,72 C163.513649,72 159.458564,70.1535297 156.553249,67.1790932 Z M96,120 C109.254834,120 120,109.254834 120,96 C120,82.745166 109.254834,72 96,72 C82.745166,72 72,82.745166 72,96 C72,109.254834 82.745166,120 96,120 Z M96,32 C102.627417,32 108,26.627417 108,20 C108,13.372583 102.627417,8 96,8 C89.372583,8 84,13.372583 84,20 C84,26.627417 89.372583,32 96,32 Z M167,152 C173.627417,152 179,146.627417 179,140 C179,133.372583 173.627417,128 167,128 C160.372583,128 155,133.372583 155,140 C155,146.627417 160.372583,152 167,152 Z M25,152 C31.627417,152 37,146.627417 37,140 C37,133.372583 31.627417,128 25,128 C18.372583,128 13,133.372583 13,140 C13,146.627417 18.372583,152 25,152 Z"/>
  </defs>
  <g fill="none" fill-rule="evenodd">
    <use fill="#7C96A3" fill-rule="nonzero" xlink:href="#icon-nav-02-a"/>
  </g>
</svg>
