<svg xmlns="http://www.w3.org/2000/svg" xmlns:xlink="http://www.w3.org/1999/xlink" width="192" height="192" viewBox="0 0 192 192">
  <defs>
    <path id="icon-nav-01-a" d="M23,7 L71,7 C79.836556,7 87,14.163444 87,23 L87,71 C87,79.836556 79.836556,87 71,87 L23,87 C14.163444,87 7,79.836556 7,71 L7,23 C7,14.163444 14.163444,7 23,7 Z M24,104 L72,104 C80.836556,104 88,111.163444 88,120 L88,168 C88,176.836556 80.836556,184 72,184 L24,184 C15.163444,184 8,176.836556 8,168 L8,120 C8,111.163444 15.163444,104 24,104 Z M120,8 L168,8 C176.836556,8 184,15.163444 184,24 L184,72 C184,80.836556 176.836556,88 168,88 L120,88 C111.163444,88 104,80.836556 104,72 L104,24 C104,15.163444 111.163444,8 120,8 Z M23,19 C20.790861,19 19,20.790861 19,23 L19,71 C19,73.209139 20.790861,75 23,75 L71,75 C73.209139,75 75,73.209139 75,71 L75,23 C75,20.790861 73.209139,19 71,19 L23,19 Z M24,116 C21.790861,116 20,117.790861 20,120 L20,168 C20,170.209139 21.790861,172 24,172 L72,172 C74.209139,172 76,170.209139 76,168 L76,120 C76,117.790861 74.209139,116 72,116 L24,116 Z M120,20 C117.790861,20 116,21.790861 116,24 L116,72 C116,74.209139 117.790861,76 120,76 L168,76 C170.209139,76 172,74.209139 172,72 L172,24 C172,21.790861 170.209139,20 168,20 L120,20 Z M125.997494,114 C123.788632,114 121.997995,112.209139 121.997995,110 C121.997995,107.790861 123.788632,106 125.997494,106 L163.992483,106 C167.555656,106 169.3401,110.308568 166.820556,112.828427 L112.827572,166.828427 C111.26567,168.390524 108.733328,168.390524 107.171426,166.828427 C105.609525,165.26633 105.609525,162.73367 107.171426,161.171573 L154.336839,114 L125.997494,114 Z M162.002506,174 C164.211368,174 166.002005,175.790861 166.002005,178 C166.002005,180.209139 164.211368,182 162.002506,182 L124.007517,182 C120.444344,182 118.6599,177.691432 121.179444,175.171573 L175.172428,121.171573 C176.73433,119.609476 179.266672,119.609476 180.828574,121.171573 C182.390475,122.73367 182.390475,125.26633 180.828574,126.828427 L133.663161,174 L162.002506,174 Z"/>
  </defs>
  <g fill="none" fill-rule="evenodd">
    <use fill="#7C96A3" fill-rule="nonzero" xlink:href="#icon-nav-01-a"/>
  </g>
</svg>
