<svg xmlns="http://www.w3.org/2000/svg" width="192" height="192" viewBox="0 0 192 192">
  <path fill="#009688" fill-rule="evenodd" d="M70,60 C66.6862915,60 64,57.3137085 64,54 C64,50.6862915 66.6862915,48 70,48 L122,48 C125.313708,48 128,50.6862915 128,54 C128,57.3137085 125.313708,60 122,60 L70,60 Z M38,102 C34.6862915,102 32,99.3137085 32,96 C32,92.6862915 34.6862915,90 38,90 L154,90 C157.313708,90 160,92.6862915 160,96 C160,99.3137085 157.313708,102 154,102 L38,102 Z M6,144 C2.6862915,144 0,141.313708 0,138 C0,134.686292 2.6862915,132 6,132 L186,132 C189.313708,132 192,134.686292 192,138 C192,141.313708 189.313708,144 186,144 L6,144 Z"/>
</svg>
