<svg xmlns="http://www.w3.org/2000/svg" width="192" height="192" viewBox="0 0 192 192">
  <path fill="#7C96A3" d="M66.0516691,120.575025 C45.7962813,109.830428 32,88.5263609 32,64 C32,28.653776 60.653776,0 96,0 C131.346224,0 160,28.653776 160,64 C160,99.346224 131.346224,128 96,128 C56.0025378,128 24,154.258493 24,186 C24,189.313708 21.3137085,192 18,192 C14.6862915,192 12,189.313708 12,186 C12,155.937098 34.54182,130.581328 66.0516691,120.575025 Z M96,116 C124.718807,116 148,92.718807 148,64 C148,35.281193 124.718807,12 96,12 C67.281193,12 44,35.281193 44,64 C44,92.718807 67.281193,116 96,116 Z M121.842853,80.9151215 C122.9943,79.7237623 124.893519,79.6914068 126.084879,80.8428534 C127.276238,81.9943 127.308593,83.8935194 126.157147,85.0848785 C109.513889,102.30504 82.4861108,102.30504 65.8428534,85.0848785 C64.6914068,83.8935194 64.7237623,81.9943 65.9151215,80.8428534 C67.1064806,79.6914068 69.0057,79.7237623 70.1571466,80.9151215 C84.4418351,95.6949595 107.558165,95.6949595 121.842853,80.9151215 Z M118,148 C114.686292,148 112,145.313708 112,142 C112,138.686292 114.686292,136 118,136 L174,136 C177.313708,136 180,138.686292 180,142 C180,145.313708 177.313708,148 174,148 L118,148 Z M118,170 C114.686292,170 112,167.313708 112,164 C112,160.686292 114.686292,158 118,158 L174,158 C177.313708,158 180,160.686292 180,164 C180,167.313708 177.313708,170 174,170 L118,170 Z M118,192 C114.686292,192 112,189.313708 112,186 C112,182.686292 114.686292,180 118,180 L174,180 C177.313708,180 180,182.686292 180,186 C180,189.313708 177.313708,192 174,192 L118,192 Z"/>
</svg>
