<?xml version="1.0" standalone="no"?><!DOCTYPE svg PUBLIC "-//W3C//DTD SVG 1.1//EN" "http://www.w3.org/Graphics/SVG/1.1/DTD/svg11.dtd"><svg t="1578227785705" class="icon" viewBox="0 0 1024 1024" version="1.1" xmlns="http://www.w3.org/2000/svg" p-id="9782" xmlns:xlink="http://www.w3.org/1999/xlink" width="128" height="128"><defs><style type="text/css"></style></defs><path d="M430.5 229.9h20V290h-20zM349.7 229.9h20V290h-20zM502 229.9h20V290h-20zM573.5 229.9h20V290h-20zM654.3 229.9h20V290h-20zM572.3 519.7H451.7l-34.4 34.4v108.8h189.3V554.1l-34.3-34.4z m14.4 123.2H437.4v-39.7l18.2-16.4 28.2 25.3 28.2-25.3 28.2 25.3 28.2-25.3 18.2 16.4v39.7z m0-55.9l-18.2-16.4-28.3 25.4-28.2-25.4-28.2 25.4-28.2-25.3-18.2 16.3v-24.7l22.6-22.6h104l22.6 22.6V587z" fill="#ffffff" p-id="9783"></path><path d="M275.7 336.2v20h35.1v60.2l38.9 49.6v265.6h-33.6v62.6h391.8v-62.6h-33.6V466l38.9-49.6v-60.2h35.1v-20H275.7z m333.8 20h32.4v28.4h-32.4v-28.4z m-113.7 0h32.4v28.4h-32.4v-28.4z m-113.7 0h32.4v28.4h-32.4v-28.4z m305.8 395.3v22.6H336.1v-22.6h351.8z m-263.8-65v45.1h-54.4v-263h284.6v263h-54.4v-45.1H424.1z m155.8 20v25.1H444.1v-25.1h135.8z m113.3-297l-36.9 47H367.7l-36.9-47v-53.2h31.3v48.4h72.4v-48.4h41.3v48.4h72.4v-48.4h41.3v48.4h72.4v-48.4h31.3v53.2z" fill="#ffffff" p-id="9784"></path></svg>