<svg xmlns="http://www.w3.org/2000/svg" width="192" height="192" viewBox="0 0 192 192">
  <path fill="#31A1AD" fill-opacity=".12" fill-rule="evenodd" d="M21.9234042,65.1034483 L87.2851063,65.1034483 C101.664681,65.1034483 113.429787,53.186207 113.429787,38.6206897 C113.429787,24.0551725 101.664681,12.1379311 87.2851063,12.1379311 L82.9276596,12.1379311 C80.3131915,12.1379311 78.5702128,13.9034483 78.5702128,16.5517241 C78.5702128,19.2 80.3131915,20.9655172 82.9276596,20.9655172 L87.2851063,20.9655172 C96.8714892,20.9655172 104.714893,28.9103448 104.714893,38.6206895 C104.714893,48.3310343 96.8714892,56.2758619 87.2851063,56.2758619 L68.1123403,56.2758619 L21.9234042,56.2758621 C19.3089361,56.2758621 17.5659574,58.0413792 17.5659574,60.6896551 C17.5659574,63.337931 19.3089361,65.1034483 21.9234042,65.1034483 Z M157.004255,65.1034483 C157.004255,55.3931036 149.160851,47.448276 139.574468,47.448276 L135.217021,47.448276 C132.602553,47.448276 130.859575,49.2137932 130.859575,51.862069 C130.859575,54.5103449 132.602553,56.2758621 135.217021,56.2758621 L139.574468,56.2758621 C144.36766,56.2758621 148.289362,60.2482759 148.289362,65.1034483 C148.289362,69.9586208 144.36766,73.9310346 139.574468,73.9310346 L124.759149,73.9310346 L4.49361702,73.9310344 C1.87914894,73.9310344 0.136170281,75.6965516 0.136170281,78.3448274 C0.136170281,80.9931033 1.87914894,82.7586205 4.49361702,82.7586205 L139.574468,82.7586205 C149.160851,82.7586207 157.004255,74.8137931 157.004255,65.1034483 Z M165.719149,91.586207 L21.9234042,91.586207 C19.3089361,91.586207 17.5659574,93.3517241 17.5659574,96 C17.5659574,98.6482759 19.3089361,100.413793 21.9234042,100.413793 L146.546383,100.413793 L165.719149,100.413793 C175.305532,100.413793 183.148936,108.358621 183.148936,118.068965 C183.148936,127.77931 175.305532,135.724138 165.719149,135.724138 L161.361702,135.724138 C158.747234,135.724138 157.004255,137.489655 157.004255,140.137931 C157.004255,142.786207 158.747234,144.551724 161.361702,144.551724 L165.719149,144.551724 C180.098723,144.551724 191.86383,132.634482 191.86383,118.068965 C191.86383,103.503448 180.098723,91.586207 165.719149,91.586207 Z M104.714894,109.241379 L39.3531916,109.241379 C36.7387235,109.241379 34.9957448,111.006896 34.9957448,113.655172 C34.9957448,116.303448 36.7387235,118.068965 39.3531916,118.068965 L69.8553191,118.068965 L81.6204255,118.068965 L104.714894,118.068966 C119.094468,118.068966 130.859575,129.986207 130.859575,144.551724 C130.859575,159.117241 119.094468,171.034483 104.714894,171.034483 L100.357447,171.034483 C97.7429789,171.034483 96.0000002,172.8 96.0000002,175.448276 C96.0000002,178.096552 97.7429789,179.862069 100.357447,179.862069 L104.714894,179.862069 C123.88766,179.862069 139.574468,163.972414 139.574468,144.551724 C139.574468,125.131034 123.88766,109.241379 104.714894,109.241379 Z" transform="matrix(-1 0 0 1 192 0)"/>
</svg>
