<svg xmlns="http://www.w3.org/2000/svg" width="192" height="192" viewBox="0 0 192 192">
  <g fill="none" fill-rule="evenodd">
    <rect width="192" height="192"/>
    <g transform="translate(28)">
      <path fill="#EB5968" fill-rule="nonzero" d="M68.5,164 C30.6684946,164 1.52100554e-15,133.406421 0,95.6672502 C0,50.642833 28.4820753,18.7822759 85.446226,0.0855788579 C85.7138625,-0.0022644479 85.9990916,-0.0228770588 86.2766256,0.0255684881 C87.2082575,0.188191519 87.8313397,1.07341642 87.668319,2.0027737 C85.683239,13.3194 85.8583826,22.1381158 88.19375,28.4589211 C91.9808167,38.7088336 104.459155,45.2718472 106.457629,60.8173528 C110.27559,57.5947193 111.343659,48.6856999 109.661835,34.0902947 C109.589692,33.4642121 109.86895,32.8493584 110.388373,32.4906469 C111.165992,31.9536267 112.232783,32.1471315 112.771118,32.9228518 L112.771133,32.9228416 C128.923711,56.1981139 137,77.1129168 137,95.6672502 C137,133.406386 106.331505,164 68.5,164 Z"/>
      <path fill="#FFF385" fill-rule="nonzero" d="M68,156 C51.4314575,156 38,140.996368 38,122.48845 C38,113.39591 41.531759,103.147491 48.595277,91.7431917 L48.5952927,91.7432011 C48.8105404,91.395676 49.2719118,91.2853092 49.6257944,91.4966901 C49.8728724,91.6442745 50.01153,91.9182166 49.982157,92.2007461 C49.2324897,99.4115611 49.6971776,103.810467 51.3762207,105.397465 C52.0701904,98.3758433 57.2150879,97.1854304 58.7513428,91.9091614 C59.7099018,88.6169894 59.0774341,83.63583 56.8539395,76.9656832 L56.8539277,76.965687 C56.7250573,76.5790955 56.9397147,76.163108 57.3333783,76.0365528 C57.487554,75.9869883 57.6539382,75.987851 57.8075724,76.0390114 C84.6025241,84.9617728 98,100.444919 98,122.48845 C98,140.996386 84.5685425,156 68,156 Z"/>
    </g>
    <ellipse cx="96" cy="184" fill="#121D33" fill-opacity=".6" rx="32" ry="8"/>
  </g>
</svg>
