<svg xmlns="http://www.w3.org/2000/svg" xmlns:xlink="http://www.w3.org/1999/xlink" width="192" height="192" viewBox="0 0 192 192">
  <defs>
    <path id="icon-map-point-鼠-a" d="M74,178 C123.333333,142.583333 148,107.916667 148,74 C148,33.1309285 114.869071,0 74,0 C33.1309285,0 2.08542407e-15,33.1309285 0,74 C0,107.916667 24.6666667,142.583333 74,178 Z"/>
  </defs>
  <g fill="none" fill-rule="evenodd">
    <rect width="192" height="192"/>
    <g transform="translate(22)">
      <ellipse cx="74" cy="180" fill="#000" fill-opacity=".25" rx="32" ry="12"/>
      <mask id="icon-map-point-鼠-b" fill="#fff">
        <use xlink:href="#icon-map-point-鼠-a"/>
      </mask>
      <use fill="#00ADA2" fill-rule="nonzero" xlink:href="#icon-map-point-鼠-a"/>
      <path fill="#FFF" d="M74,138 C38.653776,138 10,109.346224 10,74 C10,38.653776 38.653776,10 74,10 C109.346224,10 138,38.653776 138,74 C138,109.346224 109.346224,138 74,138 Z M53.857,48.137 L53.767,48.137 C52.954,48.948 52.145,49.67 51.332,50.48 C50.52,47.866 49.079,45.882 47.004,44.35 C44.751,42.638 42.498,42.187 40.064,42.818 C37.63,43.449 35.825,45.073 34.652,47.597 C33.57,50.211 33.483,53.007 34.293,55.98 C34.924,58.235 35.915,60.127 37.359,61.661 C36.005,62.473 34.652,63.555 33.392,64.726 C29.335,68.783 27.351,73.741 27.351,79.511 C27.351,81.316 27.532,83.028 27.983,84.652 L119.849,84.652 C117.957,89.608 114.8,94.116 110.383,98.083 C102.72,104.843 93.525,108.18 82.708,108.18 C72.519,108.18 63.775,105.202 56.471,99.344 L56.471,101.599 C63.954,107.186 72.699,109.984 82.708,109.984 C93.977,109.984 103.622,106.467 111.557,99.436 C116.334,95.198 119.761,90.33 121.744,85.011 C122.915,81.495 123.547,77.709 123.547,73.741 C123.547,63.734 119.582,55.259 111.558,48.137 C103.622,41.014 93.976,37.498 82.708,37.498 C71.437,37.498 61.791,41.014 53.857,48.137 Z M32.399,74.554 C32.399,73.741 32.76,73.022 33.391,72.389 C34.113,71.759 34.924,71.489 35.914,71.489 C36.906,71.489 37.718,71.759 38.349,72.389 C39.07,73.022 39.431,73.742 39.431,74.554 C39.431,75.364 39.07,76.086 38.349,76.717 C37.718,77.348 36.906,77.618 35.914,77.618 C34.923,77.618 34.112,77.347 33.391,76.717 C32.761,76.086 32.399,75.363 32.399,74.554 Z" mask="url(#icon-map-point-鼠-b)"/>
    </g>
  </g>
</svg>
