<svg xmlns="http://www.w3.org/2000/svg" xmlns:xlink="http://www.w3.org/1999/xlink" width="192" height="192" viewBox="0 0 192 192">
  <defs>
    <path id="icon-map-point-虫-a" d="M74,178 C123.333333,142.583333 148,107.916667 148,74 C148,33.1309285 114.869071,0 74,0 C33.1309285,0 2.08542407e-15,33.1309285 0,74 C0,107.916667 24.6666667,142.583333 74,178 Z"/>
  </defs>
  <g fill="none" fill-rule="evenodd">
    <rect width="192" height="192"/>
    <g>
      <rect width="192" height="192"/>
      <g transform="translate(22)">
        <ellipse cx="74" cy="180" fill="#000" fill-opacity=".25" rx="32" ry="12"/>
        <mask id="icon-map-point-虫-b" fill="#fff">
          <use xlink:href="#icon-map-point-虫-a"/>
        </mask>
        <use fill="#00ADA2" fill-rule="nonzero" xlink:href="#icon-map-point-虫-a"/>
        <path fill="#FFF" d="M74,138 C38.653776,138 10,109.346224 10,74 C10,38.653776 38.653776,10 74,10 C109.346224,10 138,38.653776 138,74 C138,109.346224 109.346224,138 74,138 Z M116.955,77.672871 C116.262,76.9711882 115.448,76.6203468 114.48,76.6313106 L102.16,76.6313106 L102.16,60.5145334 L111.675,51.0308516 C112.379,50.3401326 112.72,49.5068842 112.72,48.563998 C112.72,47.6211117 112.368,46.7878633 111.675,46.0971443 C110.982,45.3954615 110.146,45.0555839 109.2,45.0555839 C108.243,45.0555839 107.418,45.4064253 106.725,46.0971443 L97.21,55.5808261 L50.79,55.5808261 L41.275,46.0971443 C40.582,45.3954615 39.746,45.0555839 38.8,45.0555839 C37.843,45.0555839 37.029,45.4064253 36.325,46.0971443 C35.621,46.7878633 35.28,47.6211117 35.28,48.563998 C35.28,49.517848 35.632,50.3401326 36.325,51.0308516 L45.84,60.5145334 L45.84,76.609383 L33.52,76.609383 C32.563,76.609383 31.738,76.9602244 31.045,77.6509434 C30.341,78.3416624 30,79.1749108 30,80.117797 C30,81.0716471 30.352,81.8939317 31.045,82.5846507 C31.738,83.2863335 32.574,83.6262111 33.52,83.6262111 L45.818,83.6262111 C45.818,89.4808771 46.896,94.491331 49.019,98.6575727 L37.909,111.101479 C37.282,111.825089 36.996,112.669301 37.051,113.645079 C37.095,114.609893 37.48,115.432177 38.173,116.090005 C38.877,116.68205 39.658,116.967109 40.538,116.967109 C41.561,116.967109 42.452,116.583376 43.178,115.81591 L53.221,104.490311 L54.046,105.257777 C54.563,105.740184 55.355,106.332228 56.444,107.044875 C57.544,107.735594 58.743,108.459204 60.085,109.171851 C61.427,109.884498 63.022,110.487506 64.87,110.980877 C66.718,111.474248 68.577,111.715451 70.458,111.715451 L70.458,62.5866905 L77.509,62.5866905 L77.509,111.726415 C79.269,111.726415 81.051,111.485212 82.844,111.013768 C84.637,110.542325 86.144,110.016063 87.354,109.424018 C88.564,108.842937 89.763,108.163182 90.929,107.417644 C92.117,106.672106 92.887,106.13488 93.25,105.849822 C93.613,105.553799 93.888,105.323559 94.075,105.137175 L104.954,115.95844 C105.614,116.660122 106.428,117 107.429,117 C108.419,117 109.244,116.649159 109.904,115.95844 C110.608,115.267721 110.949,114.434472 110.949,113.491586 C110.949,112.537736 110.597,111.715451 109.904,111.024732 L98.464,99.5566038 C100.939,95.2039776 102.16,89.8975013 102.16,83.6481387 L114.48,83.6481387 C115.426,83.6481387 116.262,83.2972973 116.955,82.6065783 C117.659,81.9158593 118,81.0935747 118,80.1397246 C118,79.1968383 117.648,78.36359 116.955,77.672871 Z M91.611,48.5530342 C91.611,43.6851096 89.884,39.5517593 86.463,36.1310556 C83.031,32.7103519 78.884,31 74,31 C69.116,31 64.958,32.7213157 61.537,36.1310556 C58.105,39.5517593 56.389,43.6851096 56.389,48.5530342 L91.611,48.5530342 Z" mask="url(#icon-map-point-虫-b)"/>
      </g>
    </g>
  </g>
</svg>
