<svg xmlns="http://www.w3.org/2000/svg" xmlns:xlink="http://www.w3.org/1999/xlink" width="192" height="192" viewBox="0 0 192 192">
  <defs>
    <path id="icon-nav-06-a" d="M24,16 L168,16 C181.254834,16 192,26.745166 192,40 L192,128 C192,141.254834 181.254834,152 168,152 L24,152 C10.745166,152 1.623249e-15,141.254834 0,128 L0,40 C-1.623249e-15,26.745166 10.745166,16 24,16 Z M24,28 C17.372583,28 12,33.372583 12,40 L12,128 C12,134.627417 17.372583,140 24,140 L168,140 C174.627417,140 180,134.627417 180,128 L180,40 C180,33.372583 174.627417,28 168,28 L24,28 Z M49,164 L143,164 C146.313708,164 149,166.686292 149,170 C149,173.313708 146.313708,176 143,176 L49,176 C45.6862915,176 43,173.313708 43,170 C43,166.686292 45.6862915,164 49,164 Z M57.3000543,52 C58.6898653,45.153279 64.7431263,40 72,40 C79.2568737,40 85.3101347,45.153279 86.6999457,52 L149,52 C150.656854,52 152,53.3431458 152,55 C152,56.6568542 150.656854,58 149,58 L86.6999457,58 C85.3101347,64.846721 79.2568737,70 72,70 C64.7431263,70 58.6898653,64.846721 57.3000543,58 L43,58 C41.3431458,58 40,56.6568542 40,55 C40,53.3431458 41.3431458,52 43,52 L57.3000543,52 Z M104.300054,81 C105.689865,74.153279 111.743126,69 119,69 C126.256874,69 132.310135,74.153279 133.699946,81 L149,81 C150.656854,81 152,82.3431458 152,84 C152,85.6568542 150.656854,87 149,87 L133.699946,87 C132.310135,93.846721 126.256874,99 119,99 C111.743126,99 105.689865,93.846721 104.300054,87 L43,87 C41.3431458,87 40,85.6568542 40,84 C40,82.3431458 41.3431458,81 43,81 L104.300054,81 Z M57.3000543,110 C58.6898653,103.153279 64.7431263,98 72,98 C79.2568737,98 85.3101347,103.153279 86.6999457,110 L149,110 C150.656854,110 152,111.343146 152,113 C152,114.656854 150.656854,116 149,116 L86.6999457,116 C85.3101347,122.846721 79.2568737,128 72,128 C64.7431263,128 58.6898653,122.846721 57.3000543,116 L43,116 C41.3431458,116 40,114.656854 40,113 C40,111.343146 41.3431458,110 43,110 L57.3000543,110 Z M72,122 C76.9705627,122 81,117.970563 81,113 C81,108.029437 76.9705627,104 72,104 C67.0294373,104 63,108.029437 63,113 C63,117.970563 67.0294373,122 72,122 Z M72,64 C76.9705627,64 81,59.9705627 81,55 C81,50.0294373 76.9705627,46 72,46 C67.0294373,46 63,50.0294373 63,55 C63,59.9705627 67.0294373,64 72,64 Z M119,93 C123.970563,93 128,88.9705627 128,84 C128,79.0294373 123.970563,75 119,75 C114.029437,75 110,79.0294373 110,84 C110,88.9705627 114.029437,93 119,93 Z"/>
  </defs>
  <g fill="none" fill-rule="evenodd">
    <use fill="#7C96A3" fill-rule="nonzero" xlink:href="#icon-nav-06-a"/>
  </g>
</svg>
