<svg xmlns="http://www.w3.org/2000/svg" width="192" height="192" viewBox="0 0 192 192">
  <path fill="#7C96A3" d="M159.291499,79.0588235 L162.590977,73.4117647 L139.715197,34.2598646 L47.9603689,125.865594 L53.6067709,135.529412 L72.0909773,135.529412 L72.0909773,146.823529 L53.6067709,146.823529 C49.5832872,146.823529 45.8625889,144.689943 43.835272,141.22019 L7.54100119,79.1025434 C5.48633294,75.5859784 5.48633294,71.2375509 7.54100119,67.720986 L43.835272,5.603339 C45.8625889,2.13358608 49.5832872,0 53.6067709,0 L126.296707,0 C130.320191,0 134.040889,2.13358608 136.068205,5.603339 L172.362476,67.720986 C174.408638,71.2229918 174.41711,75.5499866 172.387891,79.0588235 L159.291499,79.0588235 Z M77.8745728,11.2941176 L23.9135027,65.1675031 L19.0965228,73.4117647 L30.1262854,92.2892042 L111.2532,11.2941176 L77.8745728,11.2941176 Z M69.8754274,11.2941176 L55.3907936,11.2941176 L35.1123063,46.0007498 L69.8754274,11.2941176 Z M138.552166,29.2159821 L128.08073,11.2941176 L119.252346,11.2941176 L33.0733391,97.3330867 L46.7973381,120.821712 L138.552166,29.2159821 Z M138.26285,191.931695 C138.367168,191.924125 138.471594,191.91592 138.576124,191.907074 C153.879939,191.233721 165.510837,176.41994 164.286532,158.912744 C163.062228,140.058841 152.043481,125.24506 130.005989,113.124693 C128.781684,112.45134 128.169532,113.798048 128.169532,114.471402 C129.393837,117.164816 130.005989,120.531585 130.618142,121.878292 C131.842447,125.918413 131.230295,129.285182 130.005989,131.978596 C128.781684,133.998658 127.243156,135.670236 126.333074,137.365426 C123.940953,135.107048 124.496616,129.285182 124.496616,127.938475 C124.496616,126.591768 122.660159,126.591768 122.660159,127.938475 C121.435853,131.305243 120.211549,133.998658 116.538633,139.385488 C114.702176,142.078902 112.253565,145.445671 111.02926,148.139085 C108.580649,152.852561 107.356345,158.239391 107.968497,162.952867 C109.12747,178.888396 121.257693,191.806894 136.050538,191.997855 C134.589049,192.010992 133.113205,191.963871 131.625476,191.853975 C104.078611,190.795847 83.1429934,167.517049 85.3467425,140.005741 C87.5504918,110.378179 107.384234,87.0993803 147.05172,68.0530904 C149.255469,66.9949633 150.357343,69.1112177 150.357343,70.1693449 C148.153595,74.4018538 147.05172,79.6924898 145.949845,81.8087443 C143.746096,88.1575075 144.84797,93.4481435 147.05172,97.6806524 C149.255469,100.855034 152.02482,103.481799 153.662968,106.14567 C157.968786,102.59679 156.968591,93.4481435 156.968591,91.3318892 C156.968591,89.2156348 160.274214,89.2156348 160.274214,91.3318892 C162.477964,96.6225252 164.681714,100.855034 171.29296,109.320052 C174.598585,113.552561 179.006083,118.843197 181.209832,123.075706 C185.617331,130.482596 187.82108,138.947614 186.719205,146.354504 C184.687939,170.737251 163.933836,190.625125 138.26285,191.931695 Z"/>
</svg>
