<svg xmlns="http://www.w3.org/2000/svg" width="192" height="192" viewBox="0 0 192 192">
  <path fill="#31A1AD" fill-opacity=".12" fill-rule="evenodd" d="M67.2,72 L67.2,57.6 L57.8,57.6 C55.1490332,57.6 53,55.4509668 53,52.8 C53,50.1490332 55.1490332,48 57.8,48 L67.2,48 L67.2,33.6 L57.8,33.6 C55.1490332,33.6 53,31.4509668 53,28.8 C53,26.1490332 55.1490332,24 57.8,24 L67.5982005,24 C69.8833754,10.378976 81.7296178,2.62142668e-15 96,0 C111.905801,-2.9218482e-15 124.8,12.8941992 124.8,28.8 L124.8,94.9388675 C139.249004,104.359833 148.8,120.664539 148.8,139.2 C148.8,168.360635 125.160635,192 96,192 C66.8393652,192 43.2,168.360635 43.2,139.2 C43.2,120.664539 52.7509955,104.359833 67.2,94.9388675 L67.2,81.6 L57.8,81.6 C55.1490332,81.6 53,79.4509668 53,76.8 C53,74.1490332 55.1490332,72 57.8,72 L67.2,72 Z M76.8,94.9388675 C76.8,98.1834147 75.1611381,101.208426 72.4432732,102.980514 C60.2781705,110.912342 52.8,124.411842 52.8,139.2 C52.8,163.058701 72.1412988,182.4 96,182.4 C119.858701,182.4 139.2,163.058701 139.2,139.2 C139.2,124.411842 131.721829,110.912342 119.556727,102.980514 C116.838862,101.208426 115.2,98.1834147 115.2,94.9388675 L115.2,28.8 C115.2,18.1961328 106.603867,9.6 96,9.6 C85.3961328,9.6 76.8,18.1961328 76.8,28.8 L76.8,94.9388675 Z M86.4,112.038775 L86.4,28.8 C86.4,23.4980664 90.6980664,19.2 96,19.2 C101.301934,19.2 105.6,23.4980664 105.6,28.8 L105.6,112.038775 C116.785847,115.992404 124.8,126.660299 124.8,139.2 C124.8,155.105801 111.905801,168 96,168 C80.0941992,168 67.2,155.105801 67.2,139.2 C67.2,126.660299 75.2141532,115.992404 86.4,112.038775 Z M146,68 L186,68 C189.313708,68 192,70.6862915 192,74 C192,77.3137085 189.313708,80 186,80 L146,80 C142.686292,80 140,77.3137085 140,74 C140,70.6862915 142.686292,68 146,68 Z M146,40 L186,40 C189.313708,40 192,42.6862915 192,46 C192,49.3137085 189.313708,52 186,52 L146,52 C142.686292,52 140,49.3137085 140,46 C140,42.6862915 142.686292,40 146,40 Z M160,96 L186,96 C189.313708,96 192,98.6862915 192,102 C192,105.313708 189.313708,108 186,108 L160,108 C156.686292,108 154,105.313708 154,102 C154,98.6862915 156.686292,96 160,96 Z M170,124 L186,124 C189.313708,124 192,126.686292 192,130 C192,133.313708 189.313708,136 186,136 L170,136 C166.686292,136 164,133.313708 164,130 C164,126.686292 166.686292,124 170,124 Z M170,152 L186,152 C189.313708,152 192,154.686292 192,158 C192,161.313708 189.313708,164 186,164 L170,164 C166.686292,164 164,161.313708 164,158 C164,154.686292 166.686292,152 170,152 Z M158,180 L186,180 C189.313708,180 192,182.686292 192,186 C192,189.313708 189.313708,192 186,192 L158,192 C154.686292,192 152,189.313708 152,186 C152,182.686292 154.686292,180 158,180 Z M6,68 L34,68 C37.3137085,68 40,70.6862915 40,74 C40,77.3137085 37.3137085,80 34,80 L6,80 C2.6862915,80 4.05812251e-16,77.3137085 0,74 C-4.05812251e-16,70.6862915 2.6862915,68 6,68 Z M6,40 L34,40 C37.3137085,40 40,42.6862915 40,46 C40,49.3137085 37.3137085,52 34,52 L6,52 C2.6862915,52 4.05812251e-16,49.3137085 0,46 C-4.05812251e-16,42.6862915 2.6862915,40 6,40 Z M6,96 L30,96 C33.3137085,96 36,98.6862915 36,102 C36,105.313708 33.3137085,108 30,108 L6,108 C2.6862915,108 4.05812251e-16,105.313708 0,102 C-4.05812251e-16,98.6862915 2.6862915,96 6,96 Z M6,124 L18,124 C21.3137085,124 24,126.686292 24,130 C24,133.313708 21.3137085,136 18,136 L6,136 C2.6862915,136 4.05812251e-16,133.313708 0,130 C-4.05812251e-16,126.686292 2.6862915,124 6,124 Z M6,152 L18,152 C21.3137085,152 24,154.686292 24,158 C24,161.313708 21.3137085,164 18,164 L6,164 C2.6862915,164 4.05812251e-16,161.313708 0,158 C-4.05812251e-16,154.686292 2.6862915,152 6,152 Z M6,180 L34,180 C37.3137085,180 40,182.686292 40,186 C40,189.313708 37.3137085,192 34,192 L6,192 C2.6862915,192 4.05812251e-16,189.313708 0,186 C-4.05812251e-16,182.686292 2.6862915,180 6,180 Z"/>
</svg>
