<?xml version="1.0" standalone="no"?><!DOCTYPE svg PUBLIC "-//W3C//DTD SVG 1.1//EN" "http://www.w3.org/Graphics/SVG/1.1/DTD/svg11.dtd"><svg t="1578145357105" class="icon" viewBox="0 0 1024 1024" version="1.1" xmlns="http://www.w3.org/2000/svg" p-id="6196" width="128" height="128" xmlns:xlink="http://www.w3.org/1999/xlink"><defs><style type="text/css"></style></defs><path d="M870.4 558.08c-15.36 0-28.16-12.8-28.16-28.16v-38.4c-33.28-20.48-69.12-30.72-110.08-30.72-79.36-2.56-153.6 40.96-194.56 110.08-30.72 51.2-38.4 110.08-23.04 166.4h23.04c10.24 0 17.92 5.12 23.04 12.8 5.12 7.68 5.12 17.92 0 28.16-5.12 7.68-12.8 12.8-23.04 12.8 40.96 69.12 115.2 110.08 194.56 110.08 120.32-2.56 217.6-99.84 217.6-220.16 0-53.76-20.48-104.96-53.76-143.36-2.56 12.8-12.8 20.48-25.6 20.48z m28.16 125.44c0 92.16-74.24 166.4-166.4 166.4s-166.4-74.24-166.4-166.4 74.24-166.4 166.4-166.4 166.4 74.24 166.4 166.4z" p-id="6197" fill="#ffffff"></path><path d="M732.16 570.88c-61.44 0-110.08 48.64-110.08 110.08s48.64 110.08 110.08 110.08 110.08-48.64 110.08-110.08c0-58.88-48.64-110.08-110.08-110.08z m0 166.4c-30.72 0-56.32-25.6-56.32-56.32 0-30.72 25.6-56.32 56.32-56.32 30.72 0 56.32 25.6 56.32 56.32 0 33.28-25.6 56.32-56.32 56.32z" fill="#ffffff" p-id="6198"></path><path d="M235.52 903.68c71.68 0 133.12-46.08 156.16-110.08h-17.92c-15.36 0-28.16-12.8-28.16-28.16 0-15.36 12.8-28.16 28.16-28.16h28.16c0-92.16-74.24-166.4-166.4-166.4-20.48 0-38.4 2.56-56.32 10.24v46.08c0 7.68-5.12 17.92-10.24 23.04 17.92-12.8 40.96-23.04 66.56-23.04 38.4 0 76.8 20.48 94.72 56.32 20.48 33.28 20.48 76.8 0 110.08-20.48 33.28-56.32 56.32-94.72 56.32-61.44 0-110.08-48.64-110.08-110.08 0-35.84 17.92-69.12 43.52-87.04-5.12 2.56-10.24 5.12-15.36 5.12-15.36 0-28.16-12.8-28.16-28.16V614.4c-33.28 28.16-53.76 71.68-56.32 117.76v12.8c5.12 87.04 76.8 158.72 166.4 158.72zM668.16 399.36c5.12-5.12 7.68-12.8 7.68-20.48v-110.08c0-7.68-2.56-15.36-7.68-20.48-5.12-5.12-12.8-7.68-20.48-7.68h-194.56v56.32h166.4v56.32h-166.4v28.16c0 15.36-10.24 25.6-25.6 28.16h220.16c10.24-2.56 15.36-5.12 20.48-10.24z" p-id="6199" fill="#ffffff"></path><path d="M235.52 793.6c30.72 0 56.32-25.6 56.32-56.32 0-30.72-25.6-56.32-56.32-56.32-30.72 0-56.32 25.6-56.32 56.32C179.2 768 204.8 793.6 235.52 793.6z" fill="#ffffff" p-id="6200"></path><path d="M179.2 460.8c0-23.04 15.36-43.52 35.84-51.2 10.24-5.12 17.92-15.36 17.92-25.6v-115.2c0-15.36 12.8-28.16 28.16-28.16 15.36 0 28.16 12.8 28.16 28.16v110.08c0 15.36 12.8 28.16 28.16 28.16H430.08h-2.56c-15.36 0-28.16-12.8-28.16-28.16 0-15.36 12.8-28.16 28.16-28.16h28.16v-56.32h-28.16c-10.24 0-17.92-5.12-23.04-12.8-5.12-7.68-5.12-17.92 0-28.16 5.12-7.68 12.8-12.8 23.04-12.8h28.16c0-30.72 25.6-56.32 56.32-56.32h276.48c30.72 0 56.32 25.6 56.32 56.32v253.44c20.48 12.8 38.4 28.16 53.76 46.08V240.64c0-61.44-48.64-110.08-110.08-110.08H512c-61.44 0-110.08 48.64-110.08 110.08v110.08h-56.32v-81.92c0-46.08-35.84-81.92-81.92-81.92C217.6 184.32 179.2 222.72 179.2 268.8v97.28c-33.28 17.92-53.76 56.32-53.76 94.72v153.6c15.36-15.36 35.84-25.6 56.32-33.28V460.8zM401.92 737.28c0 20.48-2.56 38.4-10.24 56.32H537.6c-10.24-17.92-17.92-35.84-23.04-56.32h-112.64z" p-id="6201" fill="#ffffff"></path><path d="M842.24 494.08v38.4c0 15.36 12.8 28.16 28.16 28.16 12.8 0 23.04-7.68 25.6-20.48-15.36-20.48-33.28-35.84-53.76-46.08zM563.2 778.24c5.12-7.68 5.12-17.92 0-28.16-5.12-7.68-12.8-12.8-23.04-12.8h-23.04c5.12 17.92 12.8 38.4 23.04 56.32h2.56c5.12 0 15.36-5.12 20.48-15.36zM151.04 655.36c5.12 0 12.8-2.56 15.36-5.12 10.24-5.12 12.8-15.36 12.8-23.04v-46.08c-20.48 7.68-38.4 17.92-53.76 33.28v12.8c0 15.36 12.8 28.16 25.6 28.16zM373.76 737.28c-15.36 0-28.16 12.8-28.16 28.16 0 15.36 12.8 28.16 28.16 28.16h17.92c5.12-17.92 10.24-35.84 10.24-56.32h-28.16zM427.52 240.64c-10.24 0-17.92 5.12-23.04 12.8-5.12 7.68-5.12 17.92 0 28.16 5.12 7.68 12.8 12.8 23.04 12.8h28.16V240.64h-28.16zM455.68 378.88v-28.16h-28.16c-15.36 0-28.16 12.8-28.16 28.16 0 15.36 12.8 28.16 28.16 28.16h2.56c15.36-2.56 25.6-12.8 25.6-28.16z" p-id="6202" fill="#ffffff"></path></svg>