<?xml version="1.0" standalone="no"?><!DOCTYPE svg PUBLIC "-//W3C//DTD SVG 1.1//EN" "http://www.w3.org/Graphics/SVG/1.1/DTD/svg11.dtd"><svg t="1569315459356" class="icon" viewBox="0 0 1102 1024" version="1.1" xmlns="http://www.w3.org/2000/svg" p-id="2285" width="137.75" height="128" xmlns:xlink="http://www.w3.org/1999/xlink"><defs><style type="text/css"></style></defs><path d="M877.11705133 1024c-27.063912 0-53.635752-8.85728-75.286882-25.095627l-42.318116-31.984623c-14.270062-10.825565-33.952907-10.825565-47.730898 0l-42.318117 31.984623c-44.778472 33.460836-106.287362 33.460836-150.573762 0l-42.318117-31.984623c-14.270062-10.825565-33.952907-10.825565-47.730898 0l-42.318117 31.984623c-44.778472 33.460836-106.287362 33.460836-150.573762 0l-42.318116-31.984623c-14.270062-10.825565-33.952907-10.825565-47.730899 0l-55.111965 41.826045c-18.698703 14.270062-45.270543 10.333494-59.540606-8.365209s-10.333494-45.270543 8.365209-59.540605l55.111965-41.826045c44.778472-33.460836 106.287362-33.460836 150.573763 0l42.318116 31.984622c14.270062 10.825565 33.952907 10.825565 47.730899 0l42.318116-31.984622c44.778472-33.460836 106.287362-33.460836 150.573763 0l42.318116 31.984622c14.270062 10.825565 33.952907 10.825565 47.730899 0l42.318116-31.984622c44.778472-33.460836 106.287362-33.460836 150.573763 0l42.318116 31.984622c14.270062 10.825565 33.952907 10.825565 47.730899 0l42.318116-31.984622c44.778472-33.460836 106.287362-33.460836 150.573763 0l42.318116 31.984622c18.698703 14.270062 22.1432 40.841903 8.365209 59.540606-14.270062 18.698703-40.841903 22.1432-59.540606 8.365209l-42.318116-31.984623c-14.270062-10.825565-33.952907-10.825565-47.730899 0l-42.318116 31.984623c-22.1432 16.238347-48.715041 25.095627-75.778952 25.095627z" p-id="2286" fill="#ffffff"></path><path d="M877.11705133 866.537242c-27.063912 0-53.635752-8.85728-75.286882-25.095627l-42.318116-31.984623c-14.270062-10.825565-33.952907-10.825565-47.730898 0l-42.318117 31.984623c-44.778472 33.460836-106.287362 33.460836-150.573762 0l-42.318117-31.984623c-14.270062-10.825565-33.952907-10.825565-47.730898 0l-42.318117 31.984623c-44.778472 33.460836-106.287362 33.460836-150.573762 0l-42.318116-31.984623c-14.270062-10.825565-33.952907-10.825565-47.730899 0l-55.111965 41.826045c-18.698703 14.270062-45.270543 10.333494-59.540606-8.365209s-10.333494-45.270543 8.365209-59.540606l55.111965-41.826045c44.778472-33.460836 106.287362-33.460836 150.573763 0l42.318116 31.984623c14.270062 10.825565 33.952907 10.825565 47.730899 0l42.318116-31.984623c44.778472-33.460836 106.287362-33.460836 150.573763 0l42.318116 31.984623c14.270062 10.825565 33.952907 10.825565 47.730899 0l42.318116-31.984623c44.778472-33.460836 106.287362-33.460836 150.573763 0l42.318116 31.984623c14.270062 10.825565 33.952907 10.825565 47.730899 0l42.318116-31.984623c44.778472-33.460836 106.287362-33.460836 150.573763 0l42.318116 31.984623c18.698703 14.270062 22.1432 40.841903 8.365209 59.540606-14.270062 18.698703-40.841903 22.1432-59.540606 8.365209l-42.318116-31.984623c-14.270062-10.825565-33.952907-10.825565-47.730899 0l-42.318116 31.984623c-22.1432 16.238347-48.715041 25.095627-75.778952 25.095627z" p-id="2287" fill="#ffffff"></path><path d="M388.98250033 532.420951v136.795772c20.174916-7.381067 41.826045-11.317636 63.969246-11.317636 40.349832 0 78.731379 12.793849 110.716002 36.905334l30.508409 23.127343 30.508409-23.127343c32.476694-24.111485 70.858241-36.905334 111.208073-36.905334 21.651129 0 42.810187 3.936569 62.985104 10.825565V531.436809c61.50889-55.604037 100.382508-136.3037 100.382508-225.860644 0-168.288323-136.795771-305.576165-305.576165-305.576165-168.288323 0.492071-305.084094 138.271985-305.084094 306.560308 0 89.064873 39.36569 169.764536 100.382508 225.860643z m-20.174916-217.987506c0-124.493993 100.87458-225.368573 225.368573-225.368572s225.368573 100.87458 225.368573 225.368572c-0.492071 1.968284-0.492071 2.460356-0.492071 3.936569l-32.476694 29.524268c-14.762134 13.28592-37.889476 13.28592-51.667468-0.492072l-4.920711-4.920711c-14.762134-14.762134-39.857761-14.762134-53.635752 0.492071-14.762134 15.254205-39.857761 16.238347-54.619894 0.492072l-1.476214-1.968285c-14.762134-14.762134-38.381547-14.762134-53.143681-0.492071l-3.936569 3.936569c-14.762134 14.762134-38.381547 14.270062-53.143681-0.492071l-3.444497-3.444498c-14.762134-14.762134-38.381547-14.762134-53.143681-0.492071l-4.920711 4.920711C433.76097233 359.703988 410.14155833 359.703988 395.37942533 344.941855l-27.063912-27.063912v-3.444498zM209.86861233 671.185007c-4.42864-6.888996-6.888996-15.254205-7.381066-24.111485-0.492071-25.587698 20.174916-47.238827 45.762614-47.730898l17.222489-0.492071c55.111965 12.301778 83.65209 95.461797 82.175877 97.922152-7.381067-7.873138-11.809707-19.682845-80.207593-4.42864l-17.222489 0.492071c-16.730418 0.492071-31.492552-8.365209-40.349832-21.651129zM129.16894933 511.753964c-2.952427-7.873138-3.444498-16.238347-1.968285-25.095627 4.920711-25.095627 29.524267-41.826045 54.619895-36.905334l17.222489 3.444498c51.175396 23.619414 61.50889 110.716002 59.540605 113.176358-5.412782-9.349351-7.381067-21.651129-77.747237-21.159058l-17.222489-3.444498c-16.238347-3.444498-29.032196-15.254205-34.444978-30.016339zM985.37269733 665.280154c3.444498-7.381067 4.920711-16.238347 3.936569-24.603556-2.952427-25.587698-26.079769-44.286401-51.667468-41.333974l-17.222489 1.968284c-53.143681 19.190774-70.36617 105.30322-68.397885 107.763575 6.396925-8.85728 9.349351-21.159058 79.22345-14.762133l17.222489-1.968285c16.730418-1.968284 30.508409-12.301778 36.905334-27.063911zM1065.58029033 525.039885c3.936569-7.381067 5.904853-15.746276 5.904853-24.603556-0.984142-25.587698-23.127343-45.762614-48.715041-44.778472l-17.222489 0.984142c-54.127823 15.746276-77.747237 100.382508-75.778952 102.842864 6.888996-8.365209 10.333494-20.174916 79.715521-9.349351l17.222489-0.984142c16.730418-0.984142 31.492552-10.333494 38.873619-24.111485z" p-id="2288" fill="#ffffff"></path></svg>