<?xml version="1.0" standalone="no"?><!DOCTYPE svg PUBLIC "-//W3C//DTD SVG 1.1//EN" "http://www.w3.org/Graphics/SVG/1.1/DTD/svg11.dtd"><svg t="1578299572948" class="icon" viewBox="0 0 1024 1024" version="1.1" xmlns="http://www.w3.org/2000/svg" p-id="21109" width="128" height="128" xmlns:xlink="http://www.w3.org/1999/xlink"><defs><style type="text/css"></style></defs><path d="M512 0C229.376 0 0 229.376 0 512s229.376 512 512 512 512-229.376 512-512S794.624 0 512 0z m0 972.8c-254.464 0-460.8-206.336-460.8-460.8s206.336-460.8 460.8-460.8 460.8 206.336 460.8 460.8-206.336 460.8-460.8 460.8z" fill="#ffffff" p-id="21110"></path><path d="M766.976 385.024v257.024c0 49.664 1.024 98.304 2.56 146.432h-48.128v-33.792H323.072v35.84h-48.128c1.536-49.664 2.56-100.864 2.56-153.6V385.024c0-48.128-1.024-92.672-2.56-134.656h494.592c-1.536 40.448-2.56 84.992-2.56 134.656z m-45.568 333.824V286.72H323.072v432.128h398.336z m-124.928-367.104c24.064 0 49.664-1.024 76.8-2.56v43.008c-24.064-1.536-49.664-2.56-76.8-2.56h-59.904v79.36h43.008c28.672 0 55.808-1.024 81.408-2.56v43.008c-25.6-1.536-52.736-2.56-81.408-2.56h-43.008v108.032h67.072c28.672 0 55.808-1.024 81.408-2.56v43.008c-24.064-1.536-51.2-2.56-81.408-2.56H440.832c-27.136 0-54.272 1.024-81.408 2.56v-43.008c27.136 1.536 54.272 2.56 81.408 2.56h52.736v-107.52h-33.792c-27.136 0-52.736 1.024-76.8 2.56v-43.008c24.064 1.536 49.664 2.56 76.8 2.56h33.792V390.144h-35.84c-28.672 0-56.832 1.024-83.968 2.56v-43.008c27.136 1.536 55.296 2.56 83.968 2.56h138.752z m55.296 223.232c-15.872 9.728-29.696 18.432-40.96 26.624-4.608-6.144-18.432-23.04-40.96-50.176 12.8-9.728 24.064-18.432 33.792-26.624 8.192 7.68 24.064 24.576 48.128 50.176z" fill="#ffffff" p-id="21111"></path></svg>