<?xml version="1.0" standalone="no"?><!DOCTYPE svg PUBLIC "-//W3C//DTD SVG 1.1//EN" "http://www.w3.org/Graphics/SVG/1.1/DTD/svg11.dtd"><svg t="1578299716874" class="icon" viewBox="0 0 1024 1024" version="1.1" xmlns="http://www.w3.org/2000/svg" p-id="24881" width="128" height="128" xmlns:xlink="http://www.w3.org/1999/xlink"><defs><style type="text/css"></style></defs><path d="M511.401869 983.028037c-265.570093 0-481.495327-215.925234-481.495327-481.495327s215.925234-481.495327 481.495327-481.495327 481.495327 215.925234 481.495327 481.495327-216.224299 481.495327-481.495327 481.495327z m0-920.82243c-242.242991 0-439.626168 197.084112-439.626168 439.626169s197.084112 439.626168 439.626168 439.626168 439.626168-197.084112 439.626168-439.626168-197.383178-439.626168-439.626168-439.626169z" p-id="24882" fill="#ffffff"></path><path d="M176.747664 454.878505c215.028037-42.766355 385.196262-89.420561 510.803738-139.663552l26.915888 45.158879c-90.018692 33.794393-203.663551 67.28972-340.93458 100.485981H768.598131v369.046729h-49.943925v-29.607477H339.439252V831.401869H289.495327V480.897196c-30.504673 6.878505-61.906542 13.757009-94.504673 20.635514-5.084112-14.953271-11.065421-30.504673-18.24299-46.654205z m207.850467-242.841122L421.682243 251.813084c-64.299065 50.242991-129.495327 97.794393-195.588785 142.35514-9.869159-14.056075-20.336449-28.411215-31.700935-43.962617 69.682243-44.560748 133.084112-90.616822 190.205608-138.168224z m333.757009 294.878505H339.439252v52.635514h379.214954v-52.635514z m-378.915888 149.831776h379.214954V604.11215H339.439252v52.635514z m0 97.794392h379.214954v-53.233645H339.439252v53.233645zM484.485981 172.261682h51.140187v184.82243H484.485981V172.261682zM619.364486 251.214953l27.514019-39.775701c66.990654 36.485981 133.383178 75.065421 198.878504 116.037384L813.457944 374.728972c-59.813084-41.869159-124.411215-83.140187-194.093458-123.514019z" p-id="24883" fill="#ffffff"></path></svg>