<?xml version="1.0" standalone="no"?><!DOCTYPE svg PUBLIC "-//W3C//DTD SVG 1.1//EN" "http://www.w3.org/Graphics/SVG/1.1/DTD/svg11.dtd"><svg t="1610441290712" class="icon" viewBox="0 0 1024 1024" version="1.1" xmlns="http://www.w3.org/2000/svg" p-id="7010" xmlns:xlink="http://www.w3.org/1999/xlink" width="128" height="128"><defs><style type="text/css"></style></defs><path d="M192 155.062C192 140.14 204.14 128 219.062 128h585.875C819.86 128 832 140.14 832 155.062v188.295l64-53.333V155.062C896 104.77 855.23 64 804.938 64H219.062C168.77 64 128 104.77 128 155.062V549.49l64-64V155.062zM832 868.938C832 883.86 819.86 896 804.938 896H219.062C204.14 896 192 883.86 192 868.938V666.51l-64 64v138.428C128 919.23 168.77 960 219.062 960h585.875C855.23 960 896 919.23 896 868.938V456.643l-64 53.333v358.962z" p-id="7011" fill="#ffffff"></path><path d="M907.53 322.643l-326.139 271.21-193.929-258.57-314.09 314.09A32.003 32.003 0 0 0 64 672.001c0 28.508 34.468 42.785 54.626 22.627l261.912-261.911 190.071 253.43 377.852-314.288A32.004 32.004 0 0 0 960 347.253c0-27.121-31.618-41.95-52.47-24.61z" p-id="7012" fill="#ffffff"></path></svg>