<?xml version="1.0" standalone="no"?><!DOCTYPE svg PUBLIC "-//W3C//DTD SVG 1.1//EN" "http://www.w3.org/Graphics/SVG/1.1/DTD/svg11.dtd"><svg t="1600163740096" class="icon" viewBox="0 0 1024 1024" version="1.1" xmlns="http://www.w3.org/2000/svg" p-id="3036" width="128" height="128" xmlns:xlink="http://www.w3.org/1999/xlink"><defs><style type="text/css"></style></defs><path d="M1024 512c0 282.77-229.23 512-512 512S0 794.77 0 512 229.23 0 512 0c73.255 0 142.9 15.417 205.915 43.132l-0.18 0.368c7.899 4.36 13.314 12.667 13.314 22.328 0 14.137-11.465 25.6-25.6 25.6-4.215 0-8.13-1.115-11.635-2.918C638.025 64.525 576.575 51.197 512 51.197 257.505 51.197 51.2 257.505 51.2 512c0 254.49 206.305 460.8 460.8 460.8S972.8 766.49 972.8 512c0-63.612-12.89-124.215-36.2-179.337l0.131-0.11c-3.165-4.26-5.101-9.48-5.101-15.193 0-14.14 11.46-25.6 25.601-25.6 7.229 0 13.729 3.023 18.385 7.84l1.694-1.438C1007.265 363.24 1024 435.66 1024 512zM215.257 384.002h56.888c7.855 0 14.223-11.462 14.223-25.6 0-14.137-6.368-25.6-14.223-25.6h-56.888c-7.855 0-14.222 11.462-14.222 25.6 0 14.138 6.367 25.6 14.222 25.6z m57.208 93.868H215.32c-7.887 0-14.285 11.462-14.285 25.603 0 14.127 6.397 25.598 14.285 25.598h57.145c7.89 0 14.288-11.471 14.288-25.598-0.001-14.14-6.398-25.603-14.288-25.603z m0 148.48H215.32c-7.887 0-14.285 11.471-14.285 25.601 0 14.14 6.397 25.6 14.285 25.6h57.145c7.888 0 14.288-11.46 14.288-25.6-0.001-14.131-6.4-25.601-14.288-25.601z m97.28-240.642h153.6c14.141 0 25.601-11.462 25.601-25.6 0-14.137-11.46-25.6-25.601-25.6h-153.6c-14.138 0-25.6 11.463-25.6 25.6 0 14.137 11.462 25.6 25.6 25.6z m620.9-339.311c-9.35-10.61-25.529-11.627-36.13-2.277L460.533 479.575h-90.79c-14.138 0-25.6 11.467-25.6 25.597 0 14.137 11.462 25.597 25.6 25.597h102.402c9.31 0 17.382-5.024 21.862-12.46L988.37 82.525c10.605-9.345 11.625-25.523 2.275-36.128z m-160.1 579.953h-460.8c-14.138 0-25.6 11.46-25.6 25.601 0 14.14 11.462 25.6 25.6 25.6h460.8c14.14 0 25.6-11.46 25.6-25.6 0-14.141-11.46-25.601-25.6-25.601z" fill="#ffffff" p-id="3037"></path></svg>