<?xml version="1.0" standalone="no"?><!DOCTYPE svg PUBLIC "-//W3C//DTD SVG 1.1//EN" "http://www.w3.org/Graphics/SVG/1.1/DTD/svg11.dtd"><svg t="1610443040841" class="icon" viewBox="0 0 1024 1024" version="1.1" xmlns="http://www.w3.org/2000/svg" p-id="12446" xmlns:xlink="http://www.w3.org/1999/xlink" width="128" height="128"><defs><style type="text/css"></style></defs><path d="M513.5 1021.1c-68.7 0-135.3-13.5-198-40-60.6-25.6-115-62.3-161.7-109-46.7-46.7-83.4-101.1-109-161.7-26.5-62.7-40-129.3-40-198s13.5-135.3 40-198c25.6-60.6 62.3-115 109-161.7S255 69.5 315.5 43.9c62.7-26.5 129.3-40 198-40s135.3 13.5 198 40c60.6 25.6 115 62.3 161.7 109s83.4 101.1 109 161.7c26.5 62.7 40 129.3 40 198s-13.5 135.3-40 198c-25.6 60.6-62.3 115-109 161.7-46.7 46.7-101.1 83.4-161.7 109-62.7 26.3-129.4 39.8-198 39.8z m0-969.2c-254 0-460.6 206.6-460.6 460.6s206.6 460.6 460.6 460.6 460.6-206.6 460.6-460.6S767.5 51.9 513.5 51.9z" p-id="12447" fill="#ffffff"></path><path d="M514 912l-0.1-48c14.7 0 29.6-1 44.1-2.8l6 47.6c-16.5 2.1-33.3 3.2-50 3.2z m-50.1-3.1c-16.6-2.1-33.2-5.2-49.3-9.3l11.8-46.5c14.2 3.6 28.8 6.4 43.4 8.2l-5.9 47.6z m149.4-9.5l-12-46.5c14.2-3.7 28.3-8.2 41.9-13.7l17.7 44.6c-15.4 6.2-31.5 11.5-47.6 15.6z m-246.5-15.2c-15.5-6.1-30.8-13.3-45.4-21.3l23.1-42.1c12.9 7.1 26.3 13.4 39.9 18.8l-17.6 44.6z m339.5-21.7l-23.2-42c12.8-7.1 25.3-15.1 37.2-23.7l28.3 38.8c-13.5 9.7-27.7 18.8-42.3 26.9zM279 836c-13.5-9.8-26.5-20.5-38.7-31.9l32.8-35c10.7 10 22.2 19.5 34 28.1L279 836z m508.2-32.5l-32.9-35c10.7-10.1 20.9-20.9 30.2-32.2l37 30.6c-10.6 12.9-22.2 25.2-34.3 36.6z m-581.2-36c-10.7-12.8-20.6-26.5-29.6-40.5l40.5-25.8c7.9 12.4 16.6 24.3 26 35.6L206 767.5z m645-41.1l-40.5-25.7c7.9-12.4 15-25.4 21.3-38.7l43.4 20.4c-7.1 15.1-15.3 29.9-24.2 44z m-698.8-43.2c-7.1-15.1-13.4-30.8-18.6-46.6l45.6-14.9c4.5 13.9 10 27.7 16.3 41l-43.3 20.5z m741.4-47.5L848 620.9c4.5-13.9 8.2-28.3 10.9-42.7l47.2 8.9c-3.2 16.4-7.3 32.7-12.5 48.6z m-772.5-47.8c-3.1-16.3-5.2-33.1-6.3-49.8l47.9-3c0.9 14.7 2.8 29.4 5.5 43.8l-47.1 9z m791.1-50.6l-47.9-2.9c0.4-7.2 0.7-14.6 0.7-21.9 0-7.4-0.2-14.9-0.7-22.3l47.9-3c0.5 8.4 0.8 16.9 0.8 25.3 0 8.2-0.3 16.6-0.8 24.8zM162.6 491l-47.9-2.9c1-16.7 3.1-33.4 6.1-49.8l47.2 8.9c-2.7 14.4-4.5 29.1-5.4 43.8z m696.2-44.6c-2.7-14.4-6.4-28.8-11-42.7l45.6-14.8c5.2 15.9 9.3 32.2 12.5 48.6l-47.1 8.9z m-679.9-42l-45.7-14.7c5.1-15.9 11.3-31.6 18.4-46.7l43.5 20.4c-6.2 13.3-11.7 27.1-16.2 41z m652.7-41.7c-6.2-13.2-13.4-26.2-21.3-38.6l40.5-25.8c9 14.1 17.1 28.8 24.2 43.9l-43.4 20.5z m-615.3-38L175.8 299c8.9-14.1 18.8-27.7 29.4-40.6l37 30.5c-9.3 11.3-18 23.4-25.9 35.8z m568-36.3c-9.4-11.3-19.5-22.1-30.2-32.2l32.9-35c12.1 11.4 23.7 23.7 34.3 36.5l-37 30.7z m-511.9-31.7l-32.9-34.9c12.1-11.4 25.1-22.2 38.6-32l28.3 38.8c-11.9 8.5-23.3 18-34 28.1z m447.7-28.6c-11.9-8.6-24.4-16.6-37.3-23.7l23.2-42c14.6 8 28.8 17.1 42.3 26.9l-28.2 38.8z m-376.6-23.4l-23.2-42c14.6-8.1 29.8-15.3 45.3-21.5l17.8 44.6c-13.6 5.5-27 11.8-39.9 18.9z m299.4-19.1c-13.6-5.4-27.8-10-42-13.6l11.9-46.5c16.2 4.1 32.2 9.4 47.8 15.5l-17.7 44.6z m-217.6-13.5l-12-46.5c16.1-4.2 32.7-7.3 49.3-9.5l6.1 47.6c-14.6 2-29.2 4.8-43.4 8.4z m132.3-8.4c-14.5-1.8-29.3-2.7-44.1-2.7h-0.8l-0.1-48h0.9c16.7 0 33.5 1 50 3.1l-5.9 47.6z" p-id="12448" fill="#ffffff"></path><path d="M761.8 637.4h-19c-1.5 0-2.4 0.8-3 2.3-2.8 6.6-4.5 10.5-5.3 11.6-4.6 7.5-10.8 13.4-18.4 17.7-7.7 4.3-15.9 6.4-24.7 6.4-6.4 0-12.6-1.2-18.5-3.6-5.9-2.4-11.3-5.7-15.9-10.1l13.6-13.6c1.3-1.3 1.9-2.7 1.9-4.5 0-1.7-0.6-3.2-1.9-4.5-1.3-1.3-2.7-1.9-4.5-1.9h-44.4c-1.7 0-3.2 0.6-4.5 1.9s-1.9 2.7-1.9 4.5V688c0 1.7 0.6 3.2 1.9 4.5 1.3 1.3 2.7 1.9 4.5 1.9 1.7 0 3.2-0.6 4.5-1.9l12.8-12.8c7.1 6.7 15.1 11.9 24.1 15.5 9 3.6 18.3 5.4 28 5.4 18.1 0 33.9-5.5 47.3-16.5 13.5-11 22.3-25.3 26.5-43 0.1-0.1 0.1-0.4 0.1-0.7 0-0.9-0.3-1.6-0.9-2.2-0.7-0.5-1.4-0.8-2.3-0.8z m3.8-80.5c-1.3-1.3-2.7-1.9-4.5-1.9s-3.2 0.6-4.5 1.9l-12.9 12.8c-7.1-6.7-15.1-11.8-24.3-15.5-9.1-3.7-18.5-5.5-28.1-5.5-18.1 0-34 5.5-47.5 16.5s-22.4 25.3-26.7 43v0.7c0 0.9 0.3 1.6 0.9 2.2 0.6 0.6 1.4 0.9 2.2 0.9h19.7c1.5 0 2.4-0.8 3-2.3 2.8-6.6 4.5-10.5 5.2-11.6 4.6-7.5 10.8-13.4 18.4-17.7 7.7-4.3 15.9-6.4 24.7-6.4 13.3 0 24.8 4.5 34.6 13.6l-13.7 13.7c-1.3 1.3-1.9 2.7-1.9 4.5 0 1.7 0.6 3.2 1.9 4.5 1.3 1.3 2.7 1.9 4.5 1.9h44.3c1.7 0 3.2-0.6 4.5-1.9 1.3-1.2 1.9-2.7 1.9-4.5v-44.3c0.2-1.9-0.5-3.4-1.7-4.6zM472.9 467c61.8 7.3 113.1-42.7 104.8-101.1-5.3-40.5-39.5-72.5-81.3-77.5-61.8-7.3-113.7 42.1-105.4 101.1 6 40.5 39.5 72.5 81.9 77.5z m127.6 67.5c-41.1-14.4-87.5-21.9-119.3-21.9-69.5 0-209.1 34.3-209.1 102.3V726c0 6.2 5.3 11.2 11.8 11.2h335c-26.9-30.4-43.8-69.9-43.8-113.8-0.1-32.6 9.6-62.9 25.4-88.9z" p-id="12449" fill="#ffffff"></path></svg>