<?xml version="1.0" standalone="no"?><!DOCTYPE svg PUBLIC "-//W3C//DTD SVG 1.1//EN" "http://www.w3.org/Graphics/SVG/1.1/DTD/svg11.dtd"><svg t="1578145044491" class="icon" viewBox="0 0 1024 1024" version="1.1" xmlns="http://www.w3.org/2000/svg" p-id="2113" width="128" height="128" xmlns:xlink="http://www.w3.org/1999/xlink"><defs><style type="text/css"></style></defs><path d="M950.208 208.64c16-48.128 12.8-89.888-12.8-118.784l-3.2-3.2c-28.8-25.696-70.368-28.896-118.368-12.832-41.6 12.832-80 38.528-115.168 70.624l-83.2 83.488L240 138.016c-16-3.2-35.2 0-48 12.864L115.2 227.936c-9.6 9.6-16 25.696-12.8 44.96 3.2 16.032 12.8 28.896 25.6 35.296l265.568 144.512-112 112.352-95.968-25.664c-6.4-3.2-12.8-3.2-16-3.2-12.8 0-25.6 6.4-35.2 16.032l-54.4 57.792C67.2 619.648 64 635.712 64 648.544c0 16.064 9.6 28.896 19.2 35.328l147.168 109.152 108.8 147.712c9.6 12.832 22.4 19.264 35.2 19.264h3.168c12.8 0 25.6-6.4 35.2-16.064l57.6-57.792c12.8-12.832 19.2-32.096 12.8-48.16l-25.6-96.32 111.968-112.384 143.968 266.496c9.6 16.064 22.4 22.496 32 25.696 6.4 3.2 9.6 3.2 12.8 3.2 12.8 0 22.4-3.2 32-9.6l76.768-57.824c16-12.832 22.4-32.096 19.2-51.36l-89.6-398.144 83.2-83.488c32-32.096 57.6-70.624 70.4-115.584z m-224.896 180.8l97.376 425.92-58.432 41.92-181.76-329.12-201.28 200.064 35.68 125.824L377.952 896l-103.872-138.752L128 647.552l42.208-41.92 126.592 35.456 201.28-200.032-334.4-180.704 58.464-58.08 412.256 96.8 110.4-106.464c25.92-25.824 58.4-45.184 90.88-58.08 35.712-12.896 48.672-3.232 55.168 0 3.264 6.432 9.76 19.36 0 54.848a197.76 197.76 0 0 1-58.432 90.336l-107.104 109.696z" fill="#ffffff" p-id="2114"></path></svg>