<?xml version="1.0" standalone="no"?><!DOCTYPE svg PUBLIC "-//W3C//DTD SVG 1.1//EN" "http://www.w3.org/Graphics/SVG/1.1/DTD/svg11.dtd"><svg t="1569315558297" class="icon" viewBox="0 0 1219 1024" version="1.1" xmlns="http://www.w3.org/2000/svg" p-id="2984" width="152.375" height="128" xmlns:xlink="http://www.w3.org/1999/xlink"><defs><style type="text/css"></style></defs><path d="M1147.953991 1011.440806H578.336608l0.189617 1.406326H86.5017l0.189617-1.406326H7.360303v-34.802621h84.047737L138.899199 625.89413V333.781233h387.237427V625.89413l17.05763 125.984698h107.971083v-12.072282h0.031603c-0.007901-0.134312-0.031603-0.268624-0.031603-0.402937 0-43.611911 50.73835-79.070291 114.236345-80.784744V540.210946h48.889584l29.374834-182.632779h182.040226l29.374834 182.632779h48.715769V743.930715l38.413245 232.70747h64.311767v34.802621h-58.567952z m-656.430369-380.893159l-0.316028-2.314907V368.583854H173.828232v259.648886l-0.316029 2.314907-46.859102 346.090538h411.729624l-46.859103-346.090538z m159.641717 156.133802H547.910979l25.716806 189.956736h77.537554V786.681449z m34.944834-48.06001l0.0079 0.916483 0.276525 35.071245h-0.300227v201.286351h168.372V774.609167h-0.268624l0.039503-35.071245 0.007901-1.042894c-0.979688-21.545232-36.611883-45.239457-84.063539-45.239457-47.562265 0-83.233964 23.789033-84.071439 45.365868z m309.818384-346.24065h-122.484684l-9.062113 56.371555h140.616811l-9.070014-56.371555z m14.663715 91.174176h-151.812114l-9.070014 56.363655h169.952142l-9.070014-56.363655z m58.275626 261.797878V575.013567h-268.537182v86.165127c51.101783 9.093716 88.859269 40.617543 88.859269 78.224915l-0.023702 0.402937h0.22912v236.831639h217.419598l-37.947103-231.285342zM400.254637 306.152456l-24.697615-24.602807 63.292577-63.063455-38.57126-38.429047-0.023702 0.023703-24.697615-24.602807 0.031603-0.031603-0.031603-0.023702 24.697615-24.602806 0.023702 0.023702 38.57126-38.429046-63.292577-63.047654L400.254637 4.756227l87.990191 87.658361-63.268874 63.031852 63.268874 63.039754L400.254637 306.152456z m-155.722965 0l-24.697615-24.602807 63.292576-63.063455-38.571259-38.429047-0.023702 0.023703-24.697615-24.602807 0.023702-0.031603-0.023702-0.023702 24.697615-24.602806 0.023702 0.023702 38.571259-38.429046-63.292576-63.047654L244.531672 4.756227l87.98229 87.658361-63.260973 63.031852 63.260973 63.039754L244.531672 306.152456z" fill="#ffffff" p-id="2985"></path></svg>