<?xml version="1.0" standalone="no"?><!DOCTYPE svg PUBLIC "-//W3C//DTD SVG 1.1//EN" "http://www.w3.org/Graphics/SVG/1.1/DTD/svg11.dtd"><svg t="1578145389230" class="icon" viewBox="0 0 1024 1024" version="1.1" xmlns="http://www.w3.org/2000/svg" p-id="7148" width="128" height="128" xmlns:xlink="http://www.w3.org/1999/xlink"><defs><style type="text/css"></style></defs><path d="M984 1020H272.8c-8.8 0-16-7.2-16-16v-83.2c0-8.8 7.2-16 16-16H984c8.8 0 16 7.2 16 16v83.2c0 8.8-7.2 16-16 16z m-695.2-32H968v-51.2H288.8v51.2zM1004 351.2H20c-8.8 0-16-7.2-16-16v-67.2c0-8.8 7.2-16 16-16h984c8.8 0 16 7.2 16 16v67.2c0 8.8-7.2 16-16 16z m-968-32h952v-35.2H36v35.2z" p-id="7149" fill="#ffffff"></path><path d="M734.4 284c-8.8 0-16-7.2-16-16V106.4c0-8.8 7.2-16 16-16s16 7.2 16 16v161.6c0 8.8-7.2 16-16 16zM139.2 284c-6.4 0-12.8-4-15.2-10.4-3.2-8 0.8-17.6 9.6-20.8L685.6 48c8-3.2 17.6 0.8 20.8 9.6 3.2 8-0.8 17.6-9.6 20.8l-552 204.8c-1.6 0.8-3.2 0.8-5.6 0.8zM770.4 936.8H644c-8.8 0-16-7.2-16-16V335.2c0-8.8 7.2-16 16-16h126.4c8.8 0 16 7.2 16 16v585.6c0 9.6-7.2 16-16 16z m-110.4-32h94.4V351.2H660v553.6z" p-id="7150" fill="#ffffff"></path><path d="M839.2 936.8h-68.8c-8.8 0-16-7.2-16-16V335.2c0-8.8 7.2-16 16-16h68.8c8.8 0 16 7.2 16 16v585.6c0 9.6-7.2 16-16 16z m-52.8-32h36.8V351.2h-36.8v553.6z" p-id="7151" fill="#ffffff"></path><path d="M770.4 936.8H644c-8.8 0-16-7.2-16-16s7.2-16 16-16h126.4c8.8 0 16 7.2 16 16s-7.2 16-16 16zM981.6 284c-4 0-8-1.6-11.2-4.8L766.4 74.4c-6.4-6.4-6.4-16.8 0-22.4 6.4-6.4 16-6.4 22.4 0L992 256.8c6.4 6.4 6.4 16.8 0 22.4-2.4 4-6.4 4.8-10.4 4.8zM139.2 515.2c-8.8 0-16-7.2-16-16V335.2c0-8.8 7.2-16 16-16s16 7.2 16 16v164c0 8.8-7.2 16-16 16z" p-id="7152" fill="#ffffff"></path><path d="M215.2 581.6H64c-6.4 0-12-4-14.4-9.6-2.4-5.6-0.8-12.8 3.2-17.6l75.2-75.2c6.4-6.4 16-6.4 22.4 0l75.2 75.2c4.8 4.8 5.6 11.2 3.2 17.6-1.6 5.6-7.2 9.6-13.6 9.6z m-112.8-32H176l-36.8-36.8-36.8 36.8z" p-id="7153" fill="#ffffff"></path><path d="M259.2 694.4H20c-8.8 0-16-7.2-16-16V565.6c0-8.8 7.2-16 16-16h239.2c8.8 0 16 7.2 16 16v112.8c0 8.8-7.2 16-16 16z m-223.2-32h207.2V581.6H36v80.8z" p-id="7154" fill="#ffffff"></path><path d="M179.2 669.6c-4.8 0-8-3.2-8-8v-79.2c0-4.8 3.2-8 8-8s8 3.2 8 8v79.2c0 4.8-4 8-8 8zM100 669.6c-4.8 0-8-3.2-8-8v-79.2c0-4.8 3.2-8 8-8s8 3.2 8 8v79.2c0 4.8-3.2 8-8 8zM644 632c-2.4 0-4-0.8-5.6-2.4-3.2-3.2-3.2-8 0-11.2l120.8-115.2-121.6-163.2c-2.4-3.2-1.6-8.8 1.6-11.2 3.2-2.4 8.8-1.6 11.2 1.6l126.4 168c2.4 3.2 2.4 8-0.8 10.4L649.6 629.6c-1.6 1.6-4 2.4-5.6 2.4z" p-id="7155" fill="#ffffff"></path><path d="M644 916.8c-2.4 0-4-0.8-5.6-2.4-3.2-3.2-3.2-8 0-11.2l120.8-115.2-121.6-162.4c-2.4-3.2-1.6-8.8 1.6-11.2 3.2-2.4 8.8-1.6 11.2 1.6l126.4 168c2.4 3.2 2.4 8-0.8 10.4l-126.4 120.8c-1.6 0.8-4 1.6-5.6 1.6zM734.4 122.4c-32.8 0-59.2-26.4-59.2-59.2S701.6 4 734.4 4c32.8 0 59.2 26.4 59.2 59.2s-26.4 59.2-59.2 59.2z m0-86.4c-15.2 0-27.2 12-27.2 27.2s12 27.2 27.2 27.2 27.2-12 27.2-27.2-12-27.2-27.2-27.2z" p-id="7156" fill="#ffffff"></path></svg>