<svg xmlns="http://www.w3.org/2000/svg" width="192" height="192" viewBox="0 0 192 192">
  <g fill="none" fill-rule="evenodd">
    <rect width="192" height="192"/>
    <path fill="#31A1AD" fill-opacity=".12" d="M67.2,72 L67.2,57.6 L57.8,57.6 C55.1490332,57.6 53,55.4509668 53,52.8 C53,50.1490332 55.1490332,48 57.8,48 L67.2,48 L67.2,33.6 L57.8,33.6 C55.1490332,33.6 53,31.4509668 53,28.8 C53,26.1490332 55.1490332,24 57.8,24 L67.5982005,24 C69.8833754,10.378976 81.7296178,2.62142668e-15 96,0 C111.905801,-2.9218482e-15 124.8,12.8941992 124.8,28.8 L124.8,94.9388675 C139.249004,104.359833 148.8,120.664539 148.8,139.2 C148.8,168.360635 125.160635,192 96,192 C66.8393652,192 43.2,168.360635 43.2,139.2 C43.2,120.664539 52.7509955,104.359833 67.2,94.9388675 L67.2,81.6 L57.8,81.6 C55.1490332,81.6 53,79.4509668 53,76.8 C53,74.1490332 55.1490332,72 57.8,72 L67.2,72 Z M76.8,94.9388675 C76.8,98.1834147 75.1611381,101.208426 72.4432732,102.980514 C60.2781705,110.912342 52.8,124.411842 52.8,139.2 C52.8,163.058701 72.1412988,182.4 96,182.4 C119.858701,182.4 139.2,163.058701 139.2,139.2 C139.2,124.411842 131.721829,110.912342 119.556727,102.980514 C116.838862,101.208426 115.2,98.1834147 115.2,94.9388675 L115.2,28.8 C115.2,18.1961328 106.603867,9.6 96,9.6 C85.3961328,9.6 76.8,18.1961328 76.8,28.8 L76.8,94.9388675 Z M86.4,112.038775 L86.4,28.8 C86.4,23.4980664 90.6980664,19.2 96,19.2 C101.301934,19.2 105.6,23.4980664 105.6,28.8 L105.6,112.038775 C116.785847,115.992404 124.8,126.660299 124.8,139.2 C124.8,155.105801 111.905801,168 96,168 C80.0941992,168 67.2,155.105801 67.2,139.2 C67.2,126.660299 75.2141532,115.992404 86.4,112.038775 Z"/>
  </g>
</svg>
