<svg xmlns="http://www.w3.org/2000/svg" width="192" height="192" viewBox="0 0 192 192">
  <g fill="none" fill-rule="evenodd">
    <rect width="192" height="192"/>
    <path fill="#31A1AD" fill-opacity=".12" d="M40.9924939,55.2799827 L95.3142855,0.804306262 L149.636077,55.2799826 C179.607022,85.3358297 179.607022,134.047289 149.636077,164.103136 C119.640171,194.184016 70.9883999,194.184016 40.9924939,164.103136 C11.0215496,134.047289 11.0215496,85.3358298 40.9924939,55.2799827 Z M47.7903136,62.0585997 C21.5556098,88.3676221 21.5556098,131.015497 47.7903136,157.324519 C74.0350021,183.643555 116.593569,183.643555 142.838257,157.324519 C169.072962,131.015497 169.072962,88.3676221 142.838257,62.0585997 L95.3142855,14.4 L47.7903136,62.0585997 Z M152.211171,108.379584 C152.583977,123.633498 146.966227,139.007286 135.357922,150.648475 C112.863723,173.206397 76.3934201,173.206397 53.8992208,150.648475 C37.5947762,134.297844 33.1082635,110.583689 40.4396826,90.180599 C46.8513536,87.6601997 53.942888,86.4 61.7142857,86.4 C93.1129871,86.4 96.6584415,113.828571 130.285714,113.828571 C138.444228,113.828571 145.752714,112.012242 152.211171,108.379584 Z M178,68 L186,68 C189.313708,68 192,70.6862915 192,74 C192,77.3137085 189.313708,80 186,80 L178,80 C174.686292,80 172,77.3137085 172,74 C172,70.6862915 174.686292,68 178,68 Z M166,40 L186,40 C189.313708,40 192,42.6862915 192,46 C192,49.3137085 189.313708,52 186,52 L166,52 C162.686292,52 160,49.3137085 160,46 C160,42.6862915 162.686292,40 166,40 Z M186,96 C189.313708,96 192,98.6862915 192,102 C192,105.313708 189.313708,108 186,108 C182.686292,108 180,105.313708 180,102 C180,98.6862915 182.686292,96 186,96 Z M182,124 L186,124 C189.313708,124 192,126.686292 192,130 C192,133.313708 189.313708,136 186,136 L182,136 C178.686292,136 176,133.313708 176,130 C176,126.686292 178.686292,124 182,124 Z M174,152 L186,152 C189.313708,152 192,154.686292 192,158 C192,161.313708 189.313708,164 186,164 L174,164 C170.686292,164 168,161.313708 168,158 C168,154.686292 170.686292,152 174,152 Z M153,180 L186,180 C189.313708,180 192,182.686292 192,186 C192,189.313708 189.313708,192 186,192 L153,192 C149.686292,192 147,189.313708 147,186 C147,182.686292 149.686292,180 153,180 Z M6,68 L10,68 C13.3137085,68 16,70.6862915 16,74 C16,77.3137085 13.3137085,80 10,80 L6,80 C2.6862915,80 4.4408921e-16,77.3137085 0,74 C-4.4408921e-16,70.6862915 2.6862915,68 6,68 Z M6,40 L26,40 C29.3137085,40 32,42.6862915 32,46 C32,49.3137085 29.3137085,52 26,52 L6,52 C2.6862915,52 4.4408921e-16,49.3137085 0,46 C-4.4408921e-16,42.6862915 2.6862915,40 6,40 Z M6,96 C9.3137085,96 12,98.6862915 12,102 C12,105.313708 9.3137085,108 6,108 C2.6862915,108 4.4408921e-16,105.313708 0,102 C-4.4408921e-16,98.6862915 2.6862915,96 6,96 Z M6,124 L10,124 C13.3137085,124 16,126.686292 16,130 C16,133.313708 13.3137085,136 10,136 L6,136 C2.6862915,136 4.4408921e-16,133.313708 0,130 C-4.4408921e-16,126.686292 2.6862915,124 6,124 Z M6,152 L18,152 C21.3137085,152 24,154.686292 24,158 C24,161.313708 21.3137085,164 18,164 L6,164 C2.6862915,164 4.4408921e-16,161.313708 0,158 C-4.4408921e-16,154.686292 2.6862915,152 6,152 Z M6,180 L39,180 C42.3137085,180 45,182.686292 45,186 C45,189.313708 42.3137085,192 39,192 L6,192 C2.6862915,192 4.4408921e-16,189.313708 0,186 C-4.4408921e-16,182.686292 2.6862915,180 6,180 Z"/>
  </g>
</svg>
