<svg xmlns="http://www.w3.org/2000/svg" width="192" height="192" viewBox="0 0 192 192">
  <g fill="#FFF" fill-rule="evenodd">
    <circle cx="96" cy="96" r="96" fill-opacity=".25"/>
    <path fill-rule="nonzero" d="M78,66 C81.3137085,66 84,68.6862915 84,72 L84,120 C84,123.313708 81.3137085,126 78,126 C74.6862915,126 72,123.313708 72,120 L72,72 C72,68.6862915 74.6862915,66 78,66 Z M114,66 C117.313708,66 120,68.6862915 120,72 L120,120 C120,123.313708 117.313708,126 114,126 C110.686292,126 108,123.313708 108,120 L108,72 C108,68.6862915 110.686292,66 114,66 Z"/>
  </g>
</svg>
