<svg xmlns="http://www.w3.org/2000/svg" width="196" height="196" viewBox="0 0 196 196">
  <g fill="none" fill-rule="evenodd" transform="translate(2 1)">
    <circle cx="96" cy="96" r="96" fill="#000" fill-opacity=".25"/>
    <path fill="#FFF" d="M96.0003006,38 C103.179836,38 109,44.0553412 109,51.5249831 C109,51.8613309 108.987941,52.1975616 108.963847,52.532974 L105.03117,107.280216 C104.67793,112.197712 100.739993,116 96.0003006,116 C91.2606084,116 87.3226709,112.197712 86.9694308,107.280216 L83.0367545,52.532974 C82.5016776,45.0841058 87.8718893,38.5943121 95.0314581,38.0376141 C95.3538437,38.0125468 95.6770159,38 96.0003006,38 Z M96,154 C88.2680135,154 82,147.731986 82,140 C82,132.268014 88.2680135,126 96,126 C103.731986,126 110,132.268014 110,140 C110,147.731986 103.731986,154 96,154 Z M96,184 C144.601058,184 184,144.601058 184,96 C184,47.398942 144.601058,8 96,8 C47.398942,8 8,47.398942 8,96 C8,144.601058 47.398942,184 96,184 Z M96,192 C42.980664,192 0,149.019336 0,96 C0,42.980664 42.980664,0 96,0 C149.019336,0 192,42.980664 192,96 C192,149.019336 149.019336,192 96,192 Z"/>
  </g>
</svg>
