<svg xmlns="http://www.w3.org/2000/svg" width="192" height="192" viewBox="0 0 192 192">
  <g fill="none" fill-rule="evenodd">
    <rect width="192" height="192"/>
    <path fill="#31A1AD" fill-opacity=".12" d="M24,49.4664784 L24,118.533522 L33.6,120.278976 L33.6,47.7210239 L24,49.4664784 Z M52.8,44.2301148 L52.8,123.769885 L62.4,125.51534 L62.4,42.4846603 L52.8,44.2301148 Z M81.6,38.9937512 L81.6,129.006249 L91.2,130.751703 L91.2,37.2482966 L81.6,38.9937512 Z M124.8,19.2 C127.450967,19.2 129.6,21.3490332 129.6,24 L129.6,187.2 C129.6,189.850967 127.450967,192 124.8,192 C122.149033,192 120,189.850967 120,187.2 L120,24 C120,21.3490332 122.149033,19.2 124.8,19.2 Z M12.6826998,41.7667819 L99.0826998,26.0576909 C104.299113,25.1092522 109.296712,28.5691289 110.245151,33.7855419 C110.348175,34.3521716 110.4,34.9269227 110.4,35.5028421 L110.4,132.497158 C110.4,137.799092 106.101934,142.097158 100.8,142.097158 C100.224081,142.097158 99.6493295,142.045333 99.0826998,141.942309 L12.6826998,126.233218 C8.11798911,125.403271 4.8,121.427614 4.8,116.788067 L4.8,51.211933 C4.8,46.572386 8.11798911,42.5967293 12.6826998,41.7667819 Z"/>
  </g>
</svg>
