<svg xmlns="http://www.w3.org/2000/svg" width="192" height="192" viewBox="0 0 192 192">
  <path fill="#7C96A3" d="M156,97 L179,97 C182.313708,97 185,99.6862915 185,103 C185,106.313708 182.313708,109 179,109 L156,109 L156,113 C156,121.708995 154.144501,129.984616 150.807263,137.453102 C168.482998,140.239491 182,155.541213 182,174 C182,177.313708 179.313708,180 176,180 C172.686292,180 170,177.313708 170,174 C170,160.192881 158.807119,149 145,149 L144.004394,149 C133.057918,163.57336 115.629814,173 96,173 C76.370186,173 58.9420817,163.57336 47.9956058,149 L47,149 C33.1928813,149 22,160.192881 22,174 C22,177.313708 19.3137085,180 16,180 C12.6862915,180 10,177.313708 10,174 C10,155.541213 23.5170019,140.239491 41.1927374,137.453102 C37.8554986,129.984616 36,121.708995 36,113 L36,109 L13,109 C9.6862915,109 7,106.313708 7,103 C7,99.6862915 9.6862915,97 13,97 L36,97 L36,68.6455557 C19.0385293,66.2194074 6,51.6323595 6,34 C6,30.6862915 8.6862915,28 12,28 C15.3137085,28 18,30.6862915 18,34 C18,46.7025492 28.2974508,57 41,57 L151,57 C163.702549,57 174,46.7025492 174,34 C174,30.6862915 176.686292,28 180,28 C183.313708,28 186,30.6862915 186,34 C186,51.6323595 172.961471,66.2194074 156,68.6455557 L156,97 Z M124.505385,38 C117.829646,29.3577584 107.411188,24 96,24 C84.5888121,24 74.1703542,29.3577581 67.4946125,38 L124.505385,38 Z M51.6081615,41.7127591 C58.9608257,23.8813283 76.3806255,12 96,12 C115.619376,12 133.039176,23.8813295 140.391834,41.7127606 C142.020341,45.6621637 139.116876,50 134.844895,50 L57.1551003,50 C52.8831188,50 49.9796531,45.6621624 51.6081615,41.7127591 Z M90,69 L48,69 L48,113 C48,139.509668 69.490332,161 96,161 C122.509668,161 144,139.509668 144,113 L144,69 L102,69 L102,141 C102,144.313708 99.3137085,147 96,147 C92.6862915,147 90,144.313708 90,141 L90,69 Z"/>
</svg>
