<svg xmlns="http://www.w3.org/2000/svg" width="192" height="192" viewBox="0 0 192 192">
  <path fill="#31A1AD" fill-opacity=".12" fill-rule="evenodd" d="M46,120 C20.5949015,120 0,99.4050985 0,74 C0,48.5949015 20.5949015,28 46,28 C48.3500138,28 50.6588688,28.1762214 52.9140716,28.5161708 C63.482875,11.4035844 82.4097126,0 104,0 C133.262545,0 157.632353,20.9482973 162.931154,48.6666213 C179.497044,51.8975159 192,66.4886471 192,84 C192,103.882251 175.882251,120 156,120 L46,120 Z M48,132 C51.3137085,132 54,134.686292 54,138 L54,163 C54,166.313708 51.3137085,169 48,169 C44.6862915,169 42,166.313708 42,163 L42,138 C42,134.686292 44.6862915,132 48,132 Z M80,132 C83.3137085,132 86,134.686292 86,138 L86,186 C86,189.313708 83.3137085,192 80,192 C76.6862915,192 74,189.313708 74,186 L74,138 C74,134.686292 76.6862915,132 80,132 Z M112,132 C115.313708,132 118,134.686292 118,138 L118,163 C118,166.313708 115.313708,169 112,169 C108.686292,169 106,166.313708 106,163 L106,138 C106,134.686292 108.686292,132 112,132 Z M144,132 C147.313708,132 150,134.686292 150,138 L150,186 C150,189.313708 147.313708,192 144,192 C140.686292,192 138,189.313708 138,186 L138,138 C138,134.686292 140.686292,132 144,132 Z"/>
</svg>
