<svg xmlns="http://www.w3.org/2000/svg" width="192" height="192" viewBox="0 0 192 192">
  <g fill="none" fill-rule="evenodd">
    <rect width="192" height="192"/>
    <path fill="#31A1AD" fill-opacity=".12" d="M40.9924939,55.2799827 L95.3142855,0.804306262 L149.636077,55.2799826 C179.607022,85.3358297 179.607022,134.047289 149.636077,164.103136 C119.640171,194.184016 70.9883999,194.184016 40.9924939,164.103136 C11.0215496,134.047289 11.0215496,85.3358298 40.9924939,55.2799827 Z M47.7903136,62.0585997 C21.5556098,88.3676221 21.5556098,131.015497 47.7903136,157.324519 C74.0350021,183.643555 116.593569,183.643555 142.838257,157.324519 C169.072962,131.015497 169.072962,88.3676221 142.838257,62.0585997 L95.3142855,14.4 L47.7903136,62.0585997 Z M152.211171,108.379584 C152.583977,123.633498 146.966227,139.007286 135.357922,150.648475 C112.863723,173.206397 76.3934201,173.206397 53.8992208,150.648475 C37.5947762,134.297844 33.1082635,110.583689 40.4396826,90.180599 C46.8513536,87.6601997 53.942888,86.4 61.7142857,86.4 C93.1129871,86.4 96.6584415,113.828571 130.285714,113.828571 C138.444228,113.828571 145.752714,112.012242 152.211171,108.379584 Z"/>
  </g>
</svg>
