<?xml version="1.0" standalone="no"?><!DOCTYPE svg PUBLIC "-//W3C//DTD SVG 1.1//EN" "http://www.w3.org/Graphics/SVG/1.1/DTD/svg11.dtd"><svg t="1578227132513" class="icon" viewBox="0 0 1024 1024" version="1.1" xmlns="http://www.w3.org/2000/svg" p-id="6188" xmlns:xlink="http://www.w3.org/1999/xlink" width="128" height="128"><defs><style type="text/css"></style></defs><path d="M520.904348 298.295652v51.2h109.078261v124.66087c0 6.678261 0 13.356522-2.226087 17.808695s-4.452174 8.904348-6.678261 11.130435c-2.226087 2.226087-6.678261 4.452174-11.130435 6.678261s-11.130435 2.226087-17.808696 2.226087l-22.260869 2.226087-8.904348-24.486957 24.486957-2.226087c4.452174 0 6.678261 0 11.130434-2.226086 2.226087 0 4.452174-2.226087 4.452174-2.226087 2.226087-2.226087 2.226087-2.226087 2.226087-6.678261V373.982609h-80.13913v175.860869h-26.713044v-175.860869h-82.365217v140.243478h-26.713044v-164.730435h109.078261v-51.2H356.173913v-24.486956h142.469565c-2.226087-6.678261-4.452174-13.356522-6.678261-22.26087-2.226087-8.904348-4.452174-13.356522-6.67826-17.808696l26.713043-4.452173c0 2.226087 2.226087 6.678261 4.452174 8.904347 2.226087 4.452174 2.226087 8.904348 4.452174 11.130435s2.226087 8.904348 4.452174 13.356522c2.226087 4.452174 2.226087 8.904348 4.452174 11.130435h140.243478v24.486956h-149.147826z" p-id="6189" fill="#ffffff"></path><path d="M509.773913 705.669565c-171.408696 0-311.652174-140.243478-311.652174-311.652174s140.243478-311.652174 311.652174-311.652174 311.652174 140.243478 311.652174 311.652174-140.243478 311.652174-311.652174 311.652174z m0-578.782608c-146.921739 0-267.130435 120.208696-267.130435 267.130434s120.208696 267.130435 267.130435 267.130435 267.130435-120.208696 267.130435-267.130435-120.208696-267.130435-267.130435-267.130434z" p-id="6190" fill="#ffffff"></path><path d="M603.269565 932.730435h-175.860869l-15.582609-100.173913-113.530435-48.973913-82.365217 48.973913L89.043478 710.121739l44.521739-93.495652-55.652174-113.530435H2.226087v-131.33913h209.252174v44.521739H46.747826v42.295652h60.104348l77.913043 158.052174-40.069565 84.591304 77.913044 75.686957 71.234782-42.295652 158.052174 66.782608 13.356522 86.817392h102.4l17.808696-82.365218 169.182608-80.13913 73.46087 37.843478 69.008695-80.13913-48.973913-73.46087 73.46087-153.6 55.652174-8.904348v-40.069565h-178.086957v-44.521739h222.608696v122.434783l-69.008696 11.130434-53.426087 109.078261 53.426087 82.365218-115.756521 133.565217-82.365218-46.747826-131.33913 62.330435z" p-id="6191" fill="#ffffff"></path></svg>