<svg xmlns="http://www.w3.org/2000/svg" width="192" height="192" viewBox="0 0 192 192">
  <path fill="#7C96A3" d="M42,0 L150,0 C166.568542,-2.66453526e-15 180,13.4314575 180,30 L180,162 C180,178.568542 166.568542,192 150,192 L42,192 C25.4314575,192 12,178.568542 12,162 L12,30 C12,13.4314575 25.4314575,2.66453526e-15 42,0 Z M42,12 C32.0588745,12 24,20.0588745 24,30 L24,162 C24,171.941125 32.0588745,180 42,180 L150,180 C159.941125,180 168,171.941125 168,162 L168,30 C168,20.0588745 159.941125,12 150,12 L42,12 Z M50,56 C48.3431458,56 47,54.6568542 47,53 C47,51.3431458 48.3431458,50 50,50 L142,50 C143.656854,50 145,51.3431458 145,53 C145,54.6568542 143.656854,56 142,56 L50,56 Z M50,98 C48.3431458,98 47,96.6568542 47,95 C47,93.3431458 48.3431458,92 50,92 L142,92 C143.656854,92 145,93.3431458 145,95 C145,96.6568542 143.656854,98 142,98 L50,98 Z M50,140 C48.3431458,140 47,138.656854 47,137 C47,135.343146 48.3431458,134 50,134 L98,134 C99.6568542,134 101,135.343146 101,137 C101,138.656854 99.6568542,140 98,140 L50,140 Z"/>
</svg>
