<?xml version="1.0" standalone="no"?><!DOCTYPE svg PUBLIC "-//W3C//DTD SVG 1.1//EN" "http://www.w3.org/Graphics/SVG/1.1/DTD/svg11.dtd"><svg t="1577755337142" class="icon" viewBox="0 0 1221 1024" version="1.1" xmlns="http://www.w3.org/2000/svg" p-id="1277" width="152.625" height="128" xmlns:xlink="http://www.w3.org/1999/xlink"><defs><style type="text/css"></style></defs><path d="M73.683377 277.876627a172.839842 172.839842 0 0 1 111.701189-159.366157c21.876627 0 312.937182 9.561969 503.886814 9.561969 163.712507 0 170.087153-6.519525 173.85399-10.286361C881.380038 99.531409 929.189886 72.439162 957.875794 72.439162h0.86927a187.472552 187.472552 0 0 1 71.280136 51.142049h9.417091l15.357102 5.940011a289.75665 289.75665 0 0 1 97.503113 62.732315c-15.212224-43.463497-61.718166-147.196378-168.493492-188.341822l-9.851726-3.766837h-15.936616c-43.463497 0-95.909451 26.078098-130.390492 52.445954-14.487832 1.303905-52.156197 3.187323-138.938314 3.187323-197.903792 0-499.975099-9.561969-502.872665-9.561969h-11.010753l-10.576117 3.332201A248.031692 248.031692 0 0 0 0.085188 289.466893c0 61.863045 0 121.263158 21.876628 156.178834a289.75665 289.75665 0 0 1 51.721561-167.7691z" p-id="1278" fill="#ffffff"></path><path d="M1216.193847 371.468025c-1.593662-6.374646-41.000566-156.178834-173.85399-207.755518l-9.851726-3.766836h-15.936615c-43.463497 0-95.909451 26.078098-130.390493 52.445953-14.487832 1.303905-52.156197 3.187323-138.938313 3.187323-197.903792 0-499.975099-9.561969-502.872666-9.561969h-11.010753l-10.576117 3.332201A248.031692 248.031692 0 0 0 58.616032 449.267685c0 55.778155 0 109.528014 15.936615 144.878325a293.378608 293.378608 0 0 1 35.205433-32.452745l1.593662-1.159026 23.180532-21.586871A831.16695 831.16695 0 0 1 131.055194 449.122807c0-127.927561 99.821166-166.175439 112.280702-170.37691 21.876627 0 312.937182 9.561969 503.886814 9.561969 163.712507 0 170.087153-6.519525 173.853989-10.286361 18.254669-18.254669 66.064516-45.346916 94.750425-45.346915h0.86927c89.10017 35.205433 122.856819 135.895869 128.362196 154.440294a8.982456 8.982456 0 0 1-5.795133 1.593662 46.071307 46.071307 0 0 1-20.717601-6.809282 141.546123 141.546123 0 0 0-60.124505-8.547821 990.967742 990.967742 0 0 0-107.789473 7.678551l-5.795133 0.724392v5.795133a424.928127 424.928127 0 0 1-22.456141 107.354839 55.633277 55.633277 0 0 1 30.569327-9.417091 64.760611 64.760611 0 0 1 42.739106 18.544425 454.04867 454.04867 0 0 0 14.487832-56.067912c18.689304-1.448783 35.205433-2.173175 49.258631-2.173174a171.970572 171.970572 0 0 1 28.975665 1.738539 112.715337 112.715337 0 0 0 51.431805 13.618563 78.234295 78.234295 0 0 0 75.771364-52.73571l5.795133-17.964913z" p-id="1279" fill="#ffffff"></path><path d="M710.278737 637.464629l14.487832 11.445388v288.307866h-31.14884v-286.859083l16.661008-12.604414m-484.907753 0l14.487832 11.445388V937.362762h-31.14884V650.503679l16.805886-12.749293m242.381437 0l14.487833 11.445388V937.217883H451.236292v-286.859083l16.805886-12.749292m484.907753 0l14.487832 11.445387v288.162988h-31.148839v-286.859083l16.805885-12.749292m0-109.238257a24.919072 24.919072 0 0 0-14.487832 9.127334 850.14601 850.14601 0 0 1-73.453311 57.95133 32.597623 32.597623 0 0 0-14.487832 28.975665v90.83871h-37.523487V624.42558a31.003962 31.003962 0 0 0-14.487832-28.975665s-46.071307-35.929825-72.439162-58.8206a16.950764 16.950764 0 0 0-28.975665 1.014148 850.14601 850.14601 0 0 1-73.453311 57.95133 32.742501 32.742501 0 0 0-14.487833 28.975665v90.83871h-37.523486v-90.83871a31.003962 31.003962 0 0 0-14.487832-28.975665s-46.071307-35.929825-72.439163-58.820599a16.950764 16.950764 0 0 0-28.975665 1.014148 850.14601 850.14601 0 0 1-73.45331 57.95133 32.597623 32.597623 0 0 0-14.487833 28.975665v90.838709H326.640933v-90.838709a30.859083 30.859083 0 0 0-14.487833-28.975665s-46.071307-35.929825-72.439162-58.8206a16.950764 16.950764 0 0 0-28.975665 1.014148 850.14601 850.14601 0 0 1-73.453311 57.95133 32.597623 32.597623 0 0 0-14.487832 28.975665v90.693831H72.379473a14.487832 14.487832 0 0 0-14.487833 14.487833v57.95133a14.487832 14.487832 0 0 0 14.487833 14.487832h50.417657v132.708546H72.379473a14.487832 14.487832 0 0 0-14.487833 14.487832v57.95133a14.487832 14.487832 0 0 0 14.487833 14.487833h1032.982456a14.487832 14.487832 0 0 0 14.487832-14.487833v-57.95133a14.487832 14.487832 0 0 0-14.487832-14.487832H1053.930123v-131.694397h50.417657a14.487832 14.487832 0 0 0 14.487833-14.487833v-57.95133a14.487832 14.487832 0 0 0-14.487833-14.487832h-50.1279v-90.83871a31.003962 31.003962 0 0 0-14.487832-28.975665s-46.071307-35.929825-72.439163-58.8206a24.919072 24.919072 0 0 0-14.487832-8.258064z m-140.821731 407.687606v-132.563667h37.523486v132.563667h-37.523486z m-242.381438 0v-132.563667h37.523486v132.563667h-37.523486z m-242.381437 0v-132.563667h37.523486v132.563667H326.640933z" p-id="1280" fill="#ffffff"></path></svg>