<?xml version="1.0" standalone="no"?><!DOCTYPE svg PUBLIC "-//W3C//DTD SVG 1.1//EN" "http://www.w3.org/Graphics/SVG/1.1/DTD/svg11.dtd"><svg t="1569488793114" class="icon" viewBox="0 0 1405 1024" version="1.1" xmlns="http://www.w3.org/2000/svg" p-id="1794" width="175.625" height="128" xmlns:xlink="http://www.w3.org/1999/xlink"><defs><style type="text/css"></style></defs><path d="M772.899779 861.69636 758.981974 719.292299C724.605797 719.632811 690.22017 718.157789 655.947987 714.736754 655.947987 714.736754 705.132216 823.991808 707.328685 846.973188 709.514126 869.941845 660.999551 917.705822 685.76105 924.387179 722.436114 934.292261 762.821857 919.37656 763.74992 918.829194 762.224681 889.987502 748.812662 842.210796 772.899779 861.694768L772.899779 861.69636ZM420.537947 138.910142C424.311653 137.618106 428.110567 136.534514 431.948876 135.750063 438.52568 134.602824 445.104061 133.702217 451.680867 132.683863 423.391466 112.977124 398.114728 89.303579 336.344125 71.792666 311.763828 64.823306 287.649926 61.025165 264.686256 60.07364 270.023017 83.029564 274.121308 101.351978 278.514249 118.447594 322.61855 132.399042 346.760814 152.575179 420.53637 138.911734L420.537947 138.910142ZM1333.86616 132.216057C1336.03742 127.569817 1338.608897 123.238631 1340.482358 119.841466 1341.839 117.41492 1323.115432 118.368035 1319.871149 124.148785 1319.535531 124.761388 1319.199917 125.437639 1318.862725 126.104343 1301.984253 122.844019 1286.774407 130.281185 1276.581461 145.889049 1267.250404 143.982818 1257.400952 144.468127 1249.481684 146.983779 1230.16094 153.15755 1223.971746 171.702729 1223.673947 192.583757 1219.964843 187.897738 1216.101326 183.657249 1212.133815 179.792278 1192.958031 158.246137 1169.526389 141.920651 1144.030632 134.965613 916.948079 79.972911 682.190482 79.972911 455.095322 134.965613 450.896188 136.114443 446.733294 137.535365 442.638155 139.167913 323.579703 169.365288 318.397357 116.409295 190.162261 128.427462 162.158055 131.062453 135.485281 136.531332 110.816746 144.26923 140.216988 193.247278 153.836994 218.22559 190.745255 259.005889 215.207378 286.017726 244.943235 308.779526 270.363359 331.735451 244.955841 313.920622 214.510936 298.300028 185.085484 280.120821 150.310666 316.581072 116.930308 350.904371 81.430686 363.69267 78.704794 360.026595 77.061381 357.639826 72.008239 357.639826 63.710813 357.639826 59.793722 364.06023 59.793722 372.006573L59.793722 458.207048 149.248671 458.207048C135.176451 471.545891 121.075869 479.619528 107.197455 486.536379 131.88017 494.275868 158.552944 501.308875 186.54297 503.945456 188.648052 504.155493 190.716893 505.067239 192.810946 505.212036 208.810198 546.436274 237.279224 582.858337 278.101426 592.737959 311.469179 600.816371 372.751328 629.031137 425.955065 649.753047 430.47721 652.376901 435.090742 654.849592 439.83348 656.883115 470.111364 714.265767 518.699994 811.383314 522.825073 850.739507 524.956938 871.138409 458.506626 941.894911 491.526159 949.398905 521.610237 956.248927 581.739002 936.346472 582.980623 935.708412 580.940142 902.455975 570.121661 855.731033 602.236764 878.176189L586.700756 688.051109C702.130463 705.083079 818.734033 708.176328 934.601775 697.38496 949.011187 711.805806 966.636518 724.974393 986.78291 735.531859 1019.635422 752.772274 1052.858213 759.85779 1080.269973 757.483751 1078.380758 815.59516 1057.315758 873.760671 1057.315758 873.760671 1053.710646 876.538868 975.371978 937.757848 1002.846764 955.949785 1027.877701 972.563275 1095.090632 961.705074 1096.461455 961.719395 1106.438536 937.445976 1100.751977 904.12671 1131.094464 919.94461L1203.139947 706.65357C1204.665186 681.438176 1173.832669 701.183102 1184.118576 642.904617 1223.054713 615.226078 1252.168186 566.62514 1259.625785 517.464105 1271.487353 480.859057 1278.443892 437.348296 1278.443892 390.499243 1278.443892 336.209843 1269.111258 286.356647 1253.578401 246.62016 1253.966014 246.020286 1254.172423 245.4045 1254.01801 244.831676 1249.86772 229.863465 1247.181221 214.29538 1245.693797 198.685924 1244.622348 187.30582 1244.773613 175.639303 1247.696463 164.610849 1251.314176 151.012642 1261.343252 152.697699 1270.105501 158.75054 1263.760317 176.395112 1258.644146 209.190881 1281.335229 206.489061 1299.157519 204.375977 1311.666685 193.00701 1305.980129 171.331984 1303.679664 162.470715 1298.369691 156.233297 1291.778703 151.951437 1294.274548 145.308269 1297.813481 139.239516 1302.297811 134.136609 1304.75269 131.331362 1309.055816 134.658515 1313.217135 139.513199 1308.048969 155.487035 1308.137206 172.515821 1328.957978 168.066887 1349.157941 163.76116 1348.266119 142.657367 1333.869311 132.204919L1333.86616 132.216057Z" p-id="1795" fill="#ffffff"></path></svg>