<?xml version="1.0" standalone="no"?><!DOCTYPE svg PUBLIC "-//W3C//DTD SVG 1.1//EN" "http://www.w3.org/Graphics/SVG/1.1/DTD/svg11.dtd"><svg t="1578105390803" class="icon" viewBox="0 0 1024 1024" version="1.1" xmlns="http://www.w3.org/2000/svg" p-id="3147" width="128" height="128" xmlns:xlink="http://www.w3.org/1999/xlink"><defs><style type="text/css"></style></defs><path d="M144 80v80h640v487.632L568.24 864H224V528H144v416h457.488L864 680.656V80H144z m48 320h39.52c98.4 0 89.872-160 4.592-160H144v208h48v-48z m0-112h31.36c33.984 0 37.2 64-3.312 64H192v-64z m432 160V288h48v-48H512v48h48v160h64zM428.848 240H336v208h48v-48h40.272c41.824 0 71.424-32.128 71.424-79.968 0-28.208-17.344-80.032-66.848-80.032z m-16.064 112H384v-64h32.096c34 0 37.2 64-3.312 64zM480 800h80V640h160v-80H480v240z" fill="#ffffff" p-id="3148"></path></svg>