<?xml version="1.0" standalone="no"?><!DOCTYPE svg PUBLIC "-//W3C//DTD SVG 1.1//EN" "http://www.w3.org/Graphics/SVG/1.1/DTD/svg11.dtd"><svg t="1578299679706" class="icon" viewBox="0 0 1024 1024" version="1.1" xmlns="http://www.w3.org/2000/svg" p-id="23357" width="128" height="128" xmlns:xlink="http://www.w3.org/1999/xlink"><defs><style type="text/css"></style></defs><path d="M511.102804 981.831776c-265.570093 0-481.495327-215.925234-481.495327-481.495327s215.925234-481.495327 481.495327-481.495328 481.495327 215.925234 481.495327 481.495328-216.224299 481.495327-481.495327 481.495327z m0-920.82243c-242.242991 0-439.626168 197.084112-439.626168 439.626168s197.084112 439.626168 439.626168 439.626168 439.626168-197.084112 439.626168-439.626168-197.383178-439.626168-439.626168-439.626168z" p-id="23358" fill="#ffffff"></path><path d="M295.775701 766.504673H243.140187V417.794393h240.747663v-93.009346H185.719626V273.345794h314.616823c-13.757009-28.11215-29.906542-56.523364-48.747664-84.934579l52.037383-24.224299c19.439252 28.411215 37.084112 57.420561 53.233645 87.028037l-44.560748 22.130841h326.57944v51.140187H538.018692v93.009346h244.934579V669.906542c0 56.523364-26.616822 84.934579-80.149533 84.934579-24.82243 0-56.82243-0.598131-96.598131-1.495327-2.392523-14.953271-5.383178-32.897196-9.570093-53.831775 37.383178 2.392523 67.28972 3.28972 89.719626 3.289719 29.308411 0 43.962617-14.953271 43.962617-44.560747v-190.803739h-192.299065v369.046729h-53.831776V467.738318h-188.411215v298.766355z" p-id="23359" fill="#ffffff"></path></svg>