<?xml version="1.0" standalone="no"?><!DOCTYPE svg PUBLIC "-//W3C//DTD SVG 1.1//EN" "http://www.w3.org/Graphics/SVG/1.1/DTD/svg11.dtd"><svg t="1578299060257" class="icon" viewBox="0 0 1024 1024" version="1.1" xmlns="http://www.w3.org/2000/svg" p-id="2621" width="128" height="128" xmlns:xlink="http://www.w3.org/1999/xlink"><defs><style type="text/css"></style></defs><path d="M374.90839703 830.97423013c-24.72568098-13.46319803-47.38010075-30.42164939-67.18653628-50.22808495-52.94661531-52.94661531-85.69843358-126.08802765-85.69843358-206.86721579 0-2.97743803 0-5.82542222 0.12945381-8.67340642 15.79336691-2.97743803 31.84564148-3.49525333 47.50955457-1.68289977-0.12945383 3.49525333-0.25890765 6.86105283-0.25890765 10.35630619 0 67.70435161 27.44421136 128.93601185 71.84687407 173.33867456 17.34681283 17.34681283 37.15324839 31.97509531 59.0309452 43.49648592-6.47269136 14.49882864-14.88719013 28.0914805-25.37295014 40.26014026z m432.11687507-265.38034568c0.12945383 2.71853037 0.12945383 5.43706075 0.12945382 8.28504494 0 80.77918815-32.75181827 153.9206005-85.69843357 206.86721579-20.19479703 20.19479703-43.3670321 37.54160987-68.86943605 51.13426173-10.61521383-12.16865975-19.15916642-25.76131161-25.63185778-40.13068641 22.65441975-11.65084445 43.10812445-26.79694222 60.97275259-44.66157037 44.40266272-44.40266272 71.84687408-105.63432297 71.84687407-173.33867458 0-3.49525333-0.12945383-7.1199605-0.25890765-10.61521382 15.66391309-1.4239921 31.71618765-0.64726914 47.50955457 2.45962272zM514.58907653 281.31328c55.92405333 0 108.2233995 15.66391309 152.62606223 42.97867061-5.17815309 15.40500543-12.55702124 29.51547259-21.74824295 42.33140149-37.92997136-23.94895803-82.85044939-37.92997136-131.00727309-37.92997135-48.80409283 0-94.37184 14.23992098-132.56071902 38.96560197-9.32067555-12.68647506-16.82899753-26.92639605-22.13660445-42.20194766 45.04993185-27.96202667 97.99654717-44.14375506 154.82677728-44.14375506z" fill="#ffffff" p-id="2622"></path><path d="M530.38244347 465.52607605c47.38010075-3.75416098 89.84095605-24.59622717 121.42768986-56.18296099 35.08198717-35.21144098 56.83023013-83.62717235 56.83023014-137.22105679 0-44.27320889-14.7577363-85.05116445-39.61287112-117.67352888-25.50240395-33.39908741-61.62002173-58.38367605-103.17470025-69.64615902-6.99050667-1.94180741-11.65084445-8.28504494-11.65084445-15.27555161v-1.16508445c0-8.67340642 7.1199605-15.79336691 15.79336692-15.7933669 1.68289975 0 3.23634569 0.25890765 4.7897916 0.77672296 59.80766815 13.72210569 111.84810667 47.50955457 149.00135507 93.85402469 36.63543309 45.82665482 58.51312987 103.82196939 58.51312987 166.99543704 0 26.66748839-3.88361482 52.4288-11.26248296 76.76611951-4.78979161 15.79336691-11.00357531 31.06891852-18.51189729 45.69720098 16.31118222 0.77672297 32.62236445 2.97743803 48.80409284 6.86105284 24.59622717 5.82542222 48.80409283 15.40500543 72.10578173 28.73874963 54.75896889 31.58673383 94.11293235 79.6141037 115.47281382 134.11416494 21.74824297 55.66514569 24.85513482 118.19134419 6.34323755 177.22228939-2.58907653 8.28504494-11.3919368 12.94538272-19.80643556 10.35630616-1.29453827-0.38836148-2.58907653-1.03563061-3.75416099-1.68289974l-0.51781531-0.25890766c-6.34323753-3.75416098-9.19122173-11.13302914-7.24941433-17.86462815 10.87412148-41.68413235 7.37886815-85.3100721-8.80286024-124.01676642-15.66391309-37.54160987-43.10812445-70.42288197-80.77918815-92.4300326-0.9061768-0.38836148-1.68289975-0.9061768-2.45962272-1.42399209-46.08556247-26.14967309-98.51436247-31.45728-146.15337086-18.64135111-43.23757827 11.52139061-82.4620879 38.05942518-109.38848395 77.15448098l-31.45728-18.12353579c2.20071506-7.1199605 3.49525333-14.62828247 3.49525334-22.39551211 0-35.34089482-24.85513482-64.85636741-57.99531456-72.10578172v-36.63543309z m-117.54407508 148.87190123c-26.92639605-39.09505581-66.15090569-65.50363653-109.51793778-77.15448098-48.02736987-12.81592889-100.97398518-7.37886815-147.3184553 19.41807407-38.18887902 22.13660445-66.15090569 55.27678419-81.94427259 93.20675555-16.18172839 38.83614815-19.67698173 82.4620879-8.67340642 124.27567408 1.94180741 7.1199605-1.4239921 14.36937482-7.6377758 17.86462815l-0.77672297 0.38836148c-7.50832197 4.40143013-17.21735902 1.81235358-21.61878914-5.69596839-0.64726914-1.03563061-1.03563061-2.07126124-1.42399209-3.23634569-18.51189728-59.03094518-15.40500543-121.5571437 6.34323753-177.22228938 21.35988148-54.50006124 60.71384494-102.52743111 115.47281382-134.11416493 23.17223506-13.46319803 47.50955457-22.91332741 72.10578174-28.73874963 16.18172839-3.88361482 32.49291061-6.08432987 48.80409283-6.86105285-7.50832197-14.49882864-13.72210569-29.77438025-18.51189728-45.69720098-7.24941431-24.3373195-11.26248297-50.09863111-11.26248297-76.76611951 0-63.04401383 21.8776968-121.16878222 58.51312988-166.99543703 37.41215605-46.73283161 89.97040987-80.64973431 150.29589333-94.24238618 8.54395259-1.94180741 16.95845136 3.49525333 18.90025877 11.90975211 0.25890765 1.16508445 0.38836148 2.33016889 0.38836148 3.49525333v1.16508444c0 7.76722963-5.56651457 14.23992098-12.94538271 15.53445925-41.0368632 11.52139061-76.63666569 36.24707161-101.88016197 69.25779754-24.85513482 32.62236445-39.61287111 73.40032-39.61287112 117.67352888 0 53.59388445 21.74824297 102.13906963 56.83023012 137.2210568 31.58673383 31.58673383 74.17704297 52.4288 121.42768988 56.18296098V501.64369383c-33.14017975 7.24941431-57.99531457 36.76488691-57.99531457 72.10578172 0 7.76722963 1.16508445 15.27555161 3.49525333 22.3955121l-31.45728 18.25298963z m523.51127704 270.94686025c0.77672297-0.77672297 1.4239921-1.68289975 2.07126124-2.71853036 4.40143013-7.50832197 1.81235358-17.21735902-5.6959684-21.48933532l-1.03563062-0.64726913c-6.08432987-3.49525333-13.8515595-2.71853037-19.02971259 2.45962271-30.68055703 30.42164939-70.29342815 49.19245431-111.84810667 54.50006124-40.38959408 5.17815309-82.85044939-2.20071506-120.90987456-23.94895803-0.25890765-0.12945383-0.51781531-0.25890765-0.77672297-0.51781531-46.47392395-26.79694222-77.54284247-69.90506667-90.48822517-117.80298272-11.65084445-43.23757827-8.28504494-90.48822518 12.03920592-133.33744197l-31.45728-18.12353581c-13.46319803 14.7577363-32.8812721 24.07841185-54.50006124 24.07841186-21.61878914 0-41.0368632-9.32067555-54.50006123-24.07841186l-31.45728 18.12353581c20.32425086 42.8492168 23.56059653 90.0998637 12.03920592 133.33744197-12.81592889 47.89791605-44.01430124 91.0060405-90.48822519 117.80298272-38.31833283 22.13660445-81.03809581 29.64492642-121.68659752 24.3373195-41.42522469-5.30760691-80.90864197-24.07841185-111.58919902-54.24115358-4.91924543-5.17815309-12.94538272-6.60214518-19.41807408-2.84798419l-0.64726912 0.38836147c-1.16508445 0.64726914-2.20071506 1.4239921-3.23634568 2.3301689-6.47269136 5.95487605-6.86105283 15.92282075-0.9061768 22.26605827 41.94304 45.56774717 97.60818569 74.17704297 156.7685847 83.23881087 57.60695309 8.67340642 118.45025185-1.16508445 172.95031308-32.36345679 0.25890765-0.12945383 0.64726914-0.25890765 0.90617679-0.51781531 23.04278124-13.33374419 43.49648592-29.64492642 60.9727526-48.15682371 11.3919368-12.03920592 21.48933531-25.11404247 30.29219555-38.83614815 8.80286025 13.72210569 18.90025876 26.79694222 30.29219555 38.83614815 17.47626667 18.51189728 37.80051753 34.8230795 60.9727526 48.15682371 54.75896889 31.58673383 115.99062914 41.68413235 173.85648987 32.8812721 58.90149136-9.0617679 114.69609086-37.6710637 156.50967704-83.10935704z" fill="#ffffff" p-id="2623"></path></svg>