<?xml version="1.0" standalone="no"?><!DOCTYPE svg PUBLIC "-//W3C//DTD SVG 1.1//EN" "http://www.w3.org/Graphics/SVG/1.1/DTD/svg11.dtd"><svg t="1578299107918" class="icon" viewBox="0 0 1024 1024" version="1.1" xmlns="http://www.w3.org/2000/svg" p-id="5318" width="128" height="128" xmlns:xlink="http://www.w3.org/1999/xlink"><defs><style type="text/css"></style></defs><path d="M539.8 344.1c34.2 0 62.6-24.4 68.8-56.7 32.5-6 57.1-34.4 57.1-68.7 0-16.5-5.9-31.5-15.5-43.4 24.9-5.7 43.6-27.9 43.6-54.6 0-31-25.1-56.1-56.1-56.1-21.9 0-40.7 12.7-49.9 31-6.4-1.9-13.1-3.3-20.1-3.3-38.6 0-69.9 31.4-69.9 70.1 0 18 6.9 34.2 18.1 46.6-26.9 9.7-46.1 35.3-46.1 65.4-0.1 38.4 31.3 69.7 70 69.7zM717.8 931.3c-43.1-46.3-117-158.4-134-391.3l-2.1-83.9c0.1-8.7 0.2-17.9 0.2-28h55.9v-28H358.2v28h55.9c-0.3 10.6-0.4 19.7-0.3 28L411 540c-21.9 217.9-84 340.9-116.6 391.4h-48.1v28.2h531.4v-28.2h-59.9zM554 540H442.1v-28H554v28z m0-56H442.1v-28H554v28z" p-id="5319" fill="#ffffff"></path></svg>