<?xml version="1.0" standalone="no"?><!DOCTYPE svg PUBLIC "-//W3C//DTD SVG 1.1//EN" "http://www.w3.org/Graphics/SVG/1.1/DTD/svg11.dtd"><svg t="1610440366158" class="icon" viewBox="0 0 1024 1024" version="1.1" xmlns="http://www.w3.org/2000/svg" p-id="593" width="128" height="128" xmlns:xlink="http://www.w3.org/1999/xlink"><defs><style type="text/css"></style></defs><path d="M946.7 194.9C938 122.7 746.7 65 512 65S86 122.7 77.3 194.9H77v633.5h0.2C84.7 900.9 276.5 959 512 959s427.3-58.1 434.8-130.6h0.2V194.9h-0.3z m-813.4-1l0.2-0.2c0.4-0.3 0.8-0.7 1.2-1.1l0.2-0.2c0.4-0.3 0.8-0.7 1.2-1 0.1-0.1 0.2-0.1 0.2-0.2 0.5-0.4 0.9-0.8 1.5-1.2l0.3-0.3c0.5-0.4 1.1-0.8 1.6-1.3 0.6-0.4 1.2-0.9 1.8-1.3 0.1-0.1 0.3-0.2 0.4-0.3 0.6-0.4 1.3-0.9 1.9-1.4 0.1-0.1 0.2-0.2 0.3-0.2 0.6-0.4 1.3-0.9 1.9-1.3 0.1-0.1 0.2-0.2 0.4-0.2 0.7-0.5 1.5-1 2.3-1.5 0.2-0.1 0.4-0.2 0.5-0.3 0.8-0.5 1.7-1 2.6-1.5 20.1-11.9 48.8-23.2 83-32.7 75.6-21.1 174-32.6 277-32.6s201.3 11.6 277 32.6c34.2 9.5 62.9 20.8 83 32.7 15.9 9.4 22 16.5 24.2 19.6-2.2 3.1-8.4 10.2-24.2 19.6-20.1 11.9-48.8 23.2-83 32.7C713.3 273.4 615 285 512 285c-92 0-187.2-13.9-267.9-39-33.5-10.5-63.4-22.6-86.4-35-12.2-6.6-20.3-12.1-25.4-16.1 0.3-0.4 0.7-0.7 1-1zM897 822.7c-1.1 2-6.3 9.8-25 20.9-20.1 11.9-48.8 23.2-83 32.7-75.7 21.1-174 32.7-277 32.7s-201.3-11.6-276.9-32.6c-34.2-9.5-62.9-20.8-83-32.7-18.7-11.1-24-19-25-20.9V251.1c0.8 0.5 1.6 0.9 2.5 1.4 2.2 1.2 4.5 2.5 6.9 3.7 0.8 0.4 1.5 0.8 2.3 1.2 2.2 1.2 4.5 2.3 6.8 3.5 0.9 0.5 1.9 0.9 2.9 1.4 4.5 2.2 9.2 4.4 14.1 6.5 3.4 1.5 7 3 10.6 4.5 5.5 2.3 11.1 4.5 17 6.8 2.3 0.9 4.7 1.8 7.1 2.7s4.8 1.8 7.3 2.6c3.7 1.3 7.4 2.6 11.3 3.9 1.3 0.4 2.6 0.8 3.8 1.3 2.3 0.7 4.6 1.5 6.9 2.2 1.6 0.5 3.3 1 4.9 1.5 1.3 0.4 2.7 0.8 4 1.2l8.1 2.4c1.4 0.4 2.7 0.8 4.1 1.2 2.8 0.8 5.6 1.6 8.4 2.3 1.7 0.5 3.4 0.9 5.1 1.4 4 1.1 8 2.1 12.1 3.1 2.9 0.7 5.9 1.5 8.8 2.2 2.6 0.6 5.3 1.3 7.9 1.9 0.7 0.2 1.4 0.3 2.1 0.5l8.1 1.8c3.1 0.7 6.1 1.3 9.2 2 1.6 0.3 3.1 0.6 4.7 1 4.7 1 9.4 1.9 14.2 2.8l4.8 0.9c4.8 0.9 9.7 1.7 14.6 2.5 1.6 0.3 3.3 0.5 4.9 0.8 4.9 0.8 9.9 1.6 14.9 2.3 1.7 0.2 3.4 0.5 5 0.7 3.1 0.4 6.3 0.9 9.5 1.3 1.9 0.3 3.9 0.5 5.8 0.7 3.2 0.4 6.5 0.8 9.8 1.2 7.1 0.8 14.3 1.6 21.5 2.2 14.1 1.3 28.4 2.3 43 3.1 3.6 0.2 7.3 0.3 11 0.5 3.7 0.1 7.4 0.3 11 0.4s7.4 0.2 11.1 0.2c5.6 0.1 11.2 0.1 16.8 0.1 167.1 0 312.1-29.2 385-72.1v559.8z m-565-174h360v50L550.6 840.1l-35.4-35.4 106.1-106.1H332v-49.9z m70.7-123.4H692v50H332v-50l141.4-141.4 35.4 35.4-106.1 106z" fill="#ffffff" p-id="594"></path></svg>