<?xml version="1.0" standalone="no"?><!DOCTYPE svg PUBLIC "-//W3C//DTD SVG 1.1//EN" "http://www.w3.org/Graphics/SVG/1.1/DTD/svg11.dtd"><svg t="1600163701642" class="icon" viewBox="0 0 1024 1024" version="1.1" xmlns="http://www.w3.org/2000/svg" p-id="1360" width="128" height="128" xmlns:xlink="http://www.w3.org/1999/xlink"><defs><style type="text/css"></style></defs><path d="M887.7 451.4l-100.2-43.1 100.2-43.1c52.4-22.6 52.4-98.7 0-121.3L578.3 110.7C557.1 101.6 534.5 97 512 97s-45.1 4.6-66.3 13.7L136.3 243.9c-52.4 22.6-52.4 98.7 0 121.3l100.2 43.1-100.2 43.1c-52.4 22.6-52.4 98.7 0 121.3l100.2 43.1-100.2 43.1c-52.4 22.6-52.4 98.7 0 121.3l309.4 133.2c21.2 9.1 43.7 13.7 66.3 13.7s45.1-4.6 66.3-13.7l309.4-133.2c52.4-22.6 52.4-98.7 0-121.3l-100.2-43.1 100.2-43.1c52.4-22.6 52.4-98.8 0-121.3zM138.5 304.5c0-4.9 1.4-17 14.2-22.5l309.4-133.2c15.9-6.8 32.7-10.3 49.9-10.3s34 3.5 49.9 10.3L871.3 282c12.8 5.5 14.2 17.6 14.2 22.5 0 4.9-1.4 17-14.2 22.5L561.9 460.2c-15.9 6.8-32.7 10.3-49.9 10.3s-34-3.5-49.9-10.3L152.7 327c-12.8-5.5-14.2-17.6-14.2-22.5zM871.3 697c12.8 5.5 14.2 17.6 14.2 22.5 0 4.9-1.4 17-14.2 22.5L561.9 875.2c-15.9 6.8-32.7 10.3-49.9 10.3s-34-3.5-49.9-10.3L152.7 742c-12.8-5.5-14.2-17.6-14.2-22.5 0-4.9 1.4-17 14.2-22.5L289 638.3l156.7 67.5c21.2 9.1 43.7 13.7 66.3 13.7s45.1-4.6 66.3-13.7L735 638.3 871.3 697z m0-162.5L561.9 667.7C546 674.5 529.2 678 512 678s-34-3.5-49.9-10.3L152.7 534.5c-12.8-5.5-14.2-17.6-14.2-22.5s1.4-17 14.2-22.5L289 430.8l156.7 67.5c21.2 9.1 43.7 13.7 66.3 13.7s45.1-4.6 66.3-13.7L735 430.8l136.2 58.6c12.8 5.5 14.2 17.6 14.2 22.5s-1.3 17.1-14.1 22.6z" p-id="1361" fill="#ffffff"></path></svg>